<?xml version="1.0" encoding="UTF-8"?>
<svg version="1.1" xmlns="http://www.w3.org/2000/svg" width="512" height="512">
<path d="M0 0 C0.95334229 -0.00287018 1.90668457 -0.00574036 2.88891602 -0.00869751 C4.90267532 -0.01073232 6.91645466 -0.00524341 8.93017578 0.00732422 C11.96303358 0.02324347 14.99452965 0.00752938 18.02734375 -0.01171875 C37.62205029 -0.03404638 54.93399227 1.82836358 69.75 16.05078125 C80.44351985 27.20842957 84.7744563 40.12517757 89.3125 54.5859375 C90.1233281 57.15069999 90.93459844 59.71531867 91.74650574 62.27973938 C91.96356218 62.96546854 92.18061862 63.65119771 92.40425253 64.35770655 C92.93611907 66.0379658 93.46805276 67.71820379 94 69.3984375 C128.84784567 70.26987404 163.698834 70.78530358 198.55401073 71.24438697 C206.41345907 71.34802284 214.27287153 71.45427519 222.13228278 71.5606817 C236.20454356 71.751165 250.27682389 71.94015755 264.34912109 72.12792969 C265.18355521 72.13906433 266.01798932 72.15019898 266.87770931 72.16167104 C270.25634043 72.20675187 273.63497164 72.25182606 277.01360295 72.29689246 C286.29862162 72.42074531 295.58363791 72.54477584 304.86865234 72.66894531 C306.11596923 72.6856251 306.11596923 72.6856251 307.38848443 72.70264184 C321.41701427 72.89028129 335.44552676 73.07919207 349.47402894 73.26888752 C357.28467076 73.37444617 365.09532051 73.47932997 372.90599442 73.58248901 C375.88936648 73.62194373 378.8727381 73.66143159 381.85610962 73.70092773 C382.58408529 73.71055035 383.31206095 73.72017296 384.06209649 73.73008716 C391.83814771 73.8330662 399.61413016 73.93922578 407.38999367 74.05558777 C408.39681097 74.07062885 408.39681097 74.07062885 409.42396801 74.0859738 C412.74628772 74.13568137 416.06860244 74.18569143 419.39091289 74.23601627 C427.09640228 74.35008589 434.80164302 74.4382414 442.50768864 74.50444508 C447.2902371 74.54826466 452.07252667 74.60708245 456.85487056 74.66906548 C459.05581573 74.69401102 461.25684983 74.71219916 463.45790982 74.72300911 C466.44830387 74.73829902 469.43750325 74.7773681 472.42758179 74.82202148 C473.71815259 74.81939584 473.71815259 74.81939584 475.03479552 74.81671715 C480.70885095 74.93447328 485.3174852 76.05793458 490 79.3984375 C493.19939932 84.19753649 492.47311422 89.35090406 491.6070652 94.92950058 C491.05650998 97.58799964 490.4355554 100.21932352 489.78442383 102.85498047 C489.54861603 103.84843979 489.31280823 104.84189911 489.06985474 105.86546326 C488.29296967 109.12652349 487.50016585 112.38348235 486.70703125 115.640625 C486.15754541 117.93231653 485.60903419 120.22424195 485.06144714 122.51638794 C483.61846729 128.54448191 482.16181846 134.56919255 480.70239258 140.59332275 C479.23499158 146.6617002 477.78138675 152.73337873 476.32617188 158.8046875 C473.46697171 170.71847385 470.60221134 182.63082228 467.69644547 194.53334808 C467.00240962 197.38852461 466.31800655 200.24589498 465.6343689 203.10357666 C465.20149322 204.88830719 464.76829248 206.67295893 464.3347168 208.45751953 C464.14688283 209.25320784 463.95904886 210.04889614 463.76552296 210.86869621 C459.89228443 226.66068457 450.18611988 241.65197555 436.31396484 250.47021484 C434.43797655 251.59181104 432.54237524 252.66174822 430.625 253.7109375 C429.7431604 254.19941162 429.7431604 254.19941162 428.84350586 254.69775391 C419.90628858 259.34834756 410.18245947 260.86353924 400.265625 261.87548828 C399.12148132 261.999519 397.97733765 262.12354973 396.79852295 262.25133896 C393.62389422 262.59339076 390.44852952 262.92722278 387.27264404 263.2573638 C384.51355902 263.54571533 381.75522224 263.84090644 378.99686432 264.13612044 C369.53808954 265.14843841 360.07700948 266.13828857 350.61557007 267.1253376 C347.03902796 267.49877561 343.46262028 267.87349257 339.88621235 268.24821305 C313.00647515 271.06442982 286.12361272 273.85022376 259.2399292 276.628479 C243.62068454 278.24272219 228.00170404 279.85951992 212.3828373 281.4774152 C206.57123645 282.07933866 200.75953835 282.68031136 194.94775486 283.2804687 C191.36696678 283.65038755 187.78624958 284.02098898 184.20554924 284.39175606 C182.55440269 284.5625746 180.90322586 284.73310083 179.25201607 284.90330696 C176.99418215 285.13607917 174.73645958 285.36990455 172.47875977 285.60397339 C170.59025047 285.7991219 170.59025047 285.7991219 168.66358948 285.99821281 C164.76938796 286.42363045 160.8858549 286.9030544 157 287.3984375 C156.18167278 289.29176284 155.37057732 291.18821483 154.5625 293.0859375 C154.11003906 294.14167969 153.65757812 295.19742187 153.19140625 296.28515625 C149.77787263 305.20511131 150.33209977 313.67328088 154 322.3984375 C158.03023468 329.68386172 164.18644917 334.71643952 172.03499413 337.45895481 C176.63444005 338.7275959 181.13828332 338.67756227 185.88150024 338.65672302 C187.34913348 338.66223658 187.34913348 338.66223658 188.84641588 338.66786152 C192.11592576 338.67781987 195.38526485 338.67369503 198.65478516 338.66967773 C201.00235678 338.6740659 203.34992684 338.67936839 205.69749451 338.68551636 C210.74804257 338.69700832 215.79854872 338.70247517 220.84910965 338.70339775 C228.15673964 338.70517435 235.46430294 338.71985584 242.77190427 338.73889292 C254.63633821 338.76970528 266.50077407 338.7938857 278.36523438 338.81176758 C279.07472124 338.81284026 279.78420811 338.81391294 280.51519458 338.81501812 C288.43458683 338.82684375 296.35397986 338.83704959 304.27337646 338.84545898 C307.14742027 338.84853314 310.02146405 338.85162188 312.89550781 338.85473633 C313.60473368 338.85550167 314.31395954 338.85626701 315.04467709 338.85705554 C326.86827475 338.87013459 338.69181698 338.89476765 350.51537359 338.92847973 C358.45457956 338.95057512 366.39366861 338.95831059 374.33290505 338.95608699 C379.26616881 338.95775059 384.19933975 338.97177933 389.13257027 338.98929977 C391.42352564 338.99491126 393.71450016 338.99537356 396.00545692 338.99036217 C399.12800712 338.98424664 402.24996821 338.99640589 405.37246704 339.01316833 C406.28306464 339.00695652 407.19366224 339.0007447 408.1318537 338.99434465 C412.89754129 339.04110001 416.15946935 339.25241729 420 342.3984375 C422.88402967 346.77420665 423.64987517 350.19943614 423 355.3984375 C420.83190749 359.90806992 418.70076035 361.94522793 414.06584358 363.80187917 C410.19759685 364.91892154 406.33684475 364.80967217 402.33764648 364.77938843 C401.38261419 364.7840684 400.4275819 364.78874837 399.44360924 364.79357016 C396.25262826 364.80550824 393.0620777 364.79606713 389.87109375 364.78662109 C387.57915497 364.79068753 385.28721815 364.79602981 382.99528503 364.80255127 C376.77376754 364.81622819 370.55239931 364.81092293 364.33087921 364.80141401 C357.81026308 364.79381209 351.28965961 364.80086519 344.76904297 364.80557251 C333.10843739 364.81138126 321.44789975 364.80205734 309.78730488 364.7867945 C299.24147036 364.77341701 288.69573503 364.77569873 278.14990234 364.78955078 C265.88304339 364.80565605 253.61624764 364.81155258 241.34937954 364.80271399 C234.86390747 364.79805226 228.3785035 364.79737056 221.89303589 364.80732346 C215.78625568 364.81603998 209.6796611 364.80988599 203.57290077 364.79264069 C201.34096903 364.78869937 199.10902146 364.7897691 196.87709618 364.79642868 C175.44856417 364.85443162 157.45975249 363.2960034 141.1484375 347.64453125 C130.60013355 336.61675894 125.20247633 322.68900644 124.625 307.3984375 C125.04471887 296.69560639 128.1221143 287.2510418 132.98828125 277.84765625 C135.54167647 269.14245169 129.76096326 258.28343355 126.94628906 249.91259766 C126.42645206 248.35557421 125.90701843 246.79841605 125.38795471 245.24113464 C124.27150444 241.89448188 123.15221381 238.54879779 122.0306778 235.20384598 C120.2411012 229.86643478 118.4579143 224.52690182 116.67547607 219.18710327 C113.83762858 210.68805013 110.99546616 202.19044712 108.15150523 193.69343793 C102.81041776 177.73529258 97.47701191 161.77457888 92.14506531 145.81337738 C90.93529364 142.19202505 89.72507305 138.57082321 88.51448059 134.94974518 C81.26380638 113.26039637 74.02640918 91.56817546 67.06622314 69.78335571 C64.78827357 62.67611898 62.41688559 55.61691456 59.82910156 48.61572266 C59.46822763 47.62860322 59.46822763 47.62860322 59.10006332 46.62154198 C55.90681188 38.13766997 51.358036 32.18819723 43 28.3984375 C36.94955534 26.25557168 31.41081064 26.11860358 25.02734375 26.125 C22.88996863 26.10472093 20.75259886 26.08387034 18.61523438 26.0625 C15.26875246 26.03987035 11.92248278 26.02341132 8.57592773 26.01757812 C5.33018357 26.00805353 2.08537742 25.97429092 -1.16015625 25.9375 C-2.65567772 25.94506821 -2.65567772 25.94506821 -4.18141174 25.95278931 C-10.09358891 25.86918706 -13.50703969 25.35224257 -18 21.3984375 C-20.84445975 17.13174787 -20.49639964 13.40246615 -20 8.3984375 C-18.62852272 4.60670619 -17.55968528 3.69807344 -14.00390625 1.79443359 C-9.38843109 -0.0894611 -4.92639941 -0.03319869 0 0 Z M102 95.3984375 C102.78514395 97.91430031 103.57039748 100.43012883 104.35571289 102.94593811 C104.68622524 104.00506904 104.68622524 104.00506904 105.02341461 105.08559656 C112.97673876 130.562523 121.44573924 155.86475373 129.91327953 181.17405415 C131.26684788 185.22005476 132.61994651 189.26621224 133.97265625 193.3125 C134.23601336 194.10019461 134.49937046 194.88788921 134.77070808 195.69945335 C139.95252995 211.20408875 145.03867656 226.7387393 150.02905273 242.30615234 C150.28401016 243.09752594 150.53896759 243.88889954 150.801651 244.70425415 C151.25865865 246.12320672 151.71304208 247.54300945 152.1638031 248.96395874 C153.16947918 252.08225465 154.27288242 255.1170907 155.57681274 258.12042236 C156.04646454 259.20216736 156.51611633 260.28391235 157 261.3984375 C173.03285968 260.17496734 189.03255736 258.76004456 205.02661133 257.10766602 C207.19797098 256.88542561 209.36935336 256.66340711 211.54075623 256.44158936 C217.35011062 255.84728592 223.15907933 255.24929799 228.96792817 254.6500752 C232.60825735 254.27463899 236.24865554 253.89987873 239.88907433 253.52531242 C251.31444928 252.34955896 262.73958706 251.17153948 274.16437799 249.99012429 C287.2935784 248.63247375 300.423535 247.2824611 313.5541895 245.93894821 C323.75755808 244.89449255 333.96022281 243.8433387 344.1623804 242.78712028 C350.23512561 242.15856087 356.3081255 241.53278015 362.38187599 240.91400337 C368.08170283 240.33313376 373.78060708 239.74392111 379.47892189 239.14840698 C381.56185051 238.93215123 383.64508694 238.71883562 385.72864914 238.5087719 C410.55713807 236.22100075 410.55713807 236.22100075 430.875 222.6484375 C436.84726175 215.07579523 439.68264919 206.02442316 441.86254883 196.75805664 C442.10711823 195.75825775 442.35168762 194.75845886 442.60366821 193.72836304 C443.39881325 190.46592625 444.17822428 187.19996565 444.95703125 183.93359375 C445.50956 181.6494112 446.06293376 179.36543289 446.61711121 177.08164978 C447.7709662 172.31669722 448.91754144 167.55007511 450.05834961 162.78198242 C451.52154227 156.66722672 452.9984885 150.55589966 454.48027515 144.44562626 C455.62077499 139.73947274 456.75633002 135.03213816 457.89014244 130.32436943 C458.43338851 128.06944128 458.97764551 125.81475642 459.52292824 123.5603199 C460.28145861 120.41900357 461.03386826 117.27628656 461.78442383 114.13305664 C462.12329369 112.73586143 462.12329369 112.73586143 462.4690094 111.31044006 C462.77370148 110.02605042 462.77370148 110.02605042 463.08454895 108.7157135 C463.26241345 107.97413026 463.44027796 107.23254702 463.6235323 106.46849155 C464.11928586 104.09319756 464.11928586 104.09319756 464 100.3984375 C446.06107141 99.66295446 428.13285117 99.17823341 410.18115234 98.91772461 C407.62256509 98.87840702 405.06398161 98.8388434 402.50540161 98.79905701 C396.34111297 98.70393254 390.17678878 98.61156826 384.0124356 98.52073305 C378.96833487 98.44637323 373.92425102 98.37095138 368.88017654 98.29483223 C367.40821255 98.27262698 365.93624854 98.25042197 364.46428454 98.22821718 C363.7306975 98.21715079 362.99711046 98.2060844 362.2412935 98.19468267 C348.43701128 97.98660414 334.63267319 97.78244233 320.82831497 97.57947744 C308.37408181 97.39623599 295.91993196 97.2079028 283.46581285 97.01708036 C270.52944732 96.81892249 257.59302916 96.62456615 244.656551 96.43389899 C237.45436219 96.32768397 230.25219953 96.22018031 223.05009079 96.10865593 C182.69666364 95.48519867 142.35743942 95.28629913 102 95.3984375 Z " fill="#FFFFFF" transform="translate(20,5.6015625)"/>
<path d="M0 0 C0.78826172 0.00491455 1.57652344 0.0098291 2.38867188 0.01489258 C16.84401209 0.30394009 29.88623889 6.14225652 40.1875 16.3125 C51.8242673 30.43372625 55.59402919 45.21620543 54.1875 63.3125 C51.53013675 78.26417031 43.20179618 90.62032965 31.0625 99.5 C18.03355908 107.67940373 3.35132272 109.85308666 -11.6484375 107.09765625 C-21.06698787 104.76046042 -28.5938562 100.74924041 -35.8125 94.3125 C-36.42738281 93.79042969 -37.04226562 93.26835937 -37.67578125 92.73046875 C-48.61823615 82.75851983 -53.07468296 69.29558099 -53.80859375 54.8984375 C-53.82466726 40.14295961 -48.6637128 26.90384562 -38.69921875 16 C-28.05498897 5.68676919 -14.82943221 -0.11016697 0 0 Z M-20.5625 33.75 C-26.47023498 40.47825373 -29.42357752 47.05656142 -29.12109375 56.11328125 C-27.9422331 64.51452864 -24.35239309 71.86052864 -17.8125 77.3125 C-9.73974364 82.30044345 -1.96341301 84.7426826 7.4921875 82.8515625 C16.86721369 80.09420186 22.31077771 75.00390656 27.05859375 66.58203125 C30.47523251 59.71328689 30.39190246 50.71885046 28.38671875 43.3828125 C25.02174446 35.9590548 19.00984917 29.88998542 11.625 26.375 C-0.87121326 22.51253408 -10.87969144 25.16751059 -20.5625 33.75 Z " fill="#FFFFFF" transform="translate(162.8125,397.6875)"/>
<path d="M0 0 C12.27029818 8.48361862 20.27294846 21.16164646 23.22265625 35.734375 C25.40247942 52.13494935 21.87439659 66.7091588 12.0078125 79.9453125 C2.74804218 90.99114339 -9.99509801 97.66829252 -24.234375 99.6015625 C-40.41049058 100.73106683 -54.30360316 96.07172619 -66.9921875 86.1328125 C-77.25061751 76.76957567 -83.66861807 63.58096851 -84.5703125 49.69140625 C-84.79638806 33.13137119 -80.26290062 19.10230534 -68.6484375 7.00390625 C-49.54349174 -11.28319081 -22.55513958 -13.08592646 0 0 Z M-53.3671875 26.8203125 C-58.84900996 34.98623974 -60.23245898 42.01802278 -59.3671875 51.8203125 C-57.40041697 59.41489026 -52.51529541 65.95292401 -46.08984375 70.39453125 C-39.15305985 74.42271358 -32.03404212 76.12657051 -24.0625 74.2890625 C-14.96764141 71.47179991 -8.13122271 66.18206214 -3.2578125 57.9453125 C0.00451687 50.55890637 -0.2654958 42.00336249 -2.9921875 34.5078125 C-6.82548544 26.17339468 -12.089824 21.63578291 -20.3671875 17.8203125 C-32.39571244 13.81080419 -45.08200491 17.44280484 -53.3671875 26.8203125 Z " fill="#FFFFFF" transform="translate(419.3671875,406.1796875)"/>
</svg>
