<?xml version="1.0" encoding="UTF-8"?>
<!-- Generator: visioncortex VTracer 0.6.3 -->
<svg version="1.1" xmlns="http://www.w3.org/2000/svg" width="512" height="512">
<path d="M0 0 C1.71 -0.01 1.71 -0.01 3.45 -0.01 C5.86 -0.01 8.27 -0.01 10.68 0.01 C14.33 0.03 17.99 0.01 21.64 -0.02 C23.99 -0.01 26.34 -0.01 28.69 0 C29.77 -0.01 30.84 -0.02 31.96 -0.02 C44.81 0.13 55.43 4.35 64.93 12.97 C65.69 13.81 66.46 14.66 67.24 15.53 C67.72 16.02 68.2 16.51 68.7 17.01 C77.18 26.05 79.39 37.45 81.43 49.28 C81.68 50.65 81.93 52.01 82.18 53.38 C83.37 60 84.4 66.63 85.29 73.31 C85.38 74.01 85.47 74.7 85.57 75.42 C85.79 77.12 86.02 78.83 86.24 80.53 C86.86 80.53 87.49 80.53 88.13 80.53 C125 80.44 161.88 80.37 198.76 80.33 C203.19 80.32 207.62 80.32 212.05 80.31 C212.93 80.31 213.81 80.31 214.72 80.31 C228.99 80.29 243.26 80.26 257.53 80.22 C272.18 80.19 286.83 80.16 301.48 80.15 C310.51 80.15 319.55 80.13 328.58 80.1 C334.78 80.08 340.99 80.07 347.19 80.08 C350.76 80.08 354.33 80.08 357.91 80.05 C361.79 80.03 365.68 80.04 369.56 80.05 C370.68 80.04 371.8 80.03 372.95 80.01 C385.82 80.11 396.42 84.34 405.93 92.97 C406.69 93.81 407.46 94.66 408.24 95.53 C408.96 96.28 408.96 96.28 409.7 97.05 C419.38 107.54 421.87 119.64 421.6 133.47 C421.1 144.9 418.91 156.17 416.96 167.41 C416.35 170.97 415.76 174.52 415.16 178.07 C414.16 184.02 413.14 189.97 412.12 195.92 C410.94 202.77 409.78 209.61 408.64 216.46 C407.53 223.11 406.4 229.75 405.26 236.39 C404.79 239.19 404.31 241.99 403.85 244.8 C403.19 248.72 402.51 252.64 401.83 256.55 C401.64 257.69 401.45 258.83 401.26 260.01 C398.55 275.27 392.34 287.71 379.68 297 C370.46 302.81 362.39 304.68 351.69 304.68 C350.72 304.68 349.75 304.69 348.75 304.69 C345.51 304.7 342.26 304.7 339.02 304.71 C336.69 304.71 334.37 304.72 332.04 304.73 C324.4 304.75 316.76 304.76 309.11 304.77 C306.48 304.77 303.85 304.78 301.22 304.78 C290.26 304.8 279.31 304.81 268.36 304.82 C265.52 304.82 262.68 304.82 259.84 304.83 C259.13 304.83 258.43 304.83 257.7 304.83 C246.28 304.84 234.85 304.86 223.43 304.89 C211.68 304.93 199.94 304.95 188.2 304.95 C181.61 304.95 175.02 304.96 168.43 304.98 C162.23 305.01 156.03 305.01 149.83 305 C147.56 305 145.29 305.01 143.02 305.02 C125.96 305.12 112.75 304.06 99.55 292.09 C98.79 291.25 98.03 290.4 97.24 289.53 C96.76 289.04 96.28 288.55 95.79 288.05 C87.76 279.5 85.34 268.94 83.42 257.68 C83.18 256.29 82.93 254.9 82.68 253.51 C82 249.67 81.33 245.84 80.67 241.99 C79.93 237.74 79.18 233.48 78.43 229.22 C76.73 219.62 75.07 210.01 73.4 200.4 C72.3 194.04 71.19 187.67 70.08 181.31 C69.7 179.11 69.32 176.92 68.94 174.72 C68.75 173.62 68.55 172.52 68.36 171.39 C65.79 156.63 63.22 141.87 60.67 127.11 C58.93 117.07 57.18 107.03 55.43 96.99 C54.5 91.7 53.58 86.41 52.67 81.12 C51.82 76.16 50.96 71.21 50.09 66.27 C49.77 64.45 49.46 62.64 49.15 60.83 C48.73 58.35 48.29 55.88 47.85 53.4 C47.73 52.69 47.61 51.97 47.49 51.23 C46.42 45.29 44.72 41.01 40.43 36.72 C34.68 32.77 28.21 33.39 21.46 33.36 C19.55 33.33 17.64 33.31 15.72 33.28 C12.73 33.25 9.73 33.22 6.74 33.21 C3.83 33.19 0.93 33.15 -1.98 33.11 C-3.31 33.11 -3.31 33.11 -4.68 33.11 C-10.2 33 -13.37 32.2 -17.76 28.53 C-21.39 24.71 -22.07 21.65 -22.26 16.53 C-22.07 11.41 -21.39 8.35 -17.76 4.53 C-12.24 -0.32 -7.13 -0.05 0 0 Z M92.24 112.53 C92.75 118.02 93.31 123.46 94.25 128.89 C94.45 130.05 94.65 131.21 94.86 132.4 C95.07 133.64 95.29 134.87 95.51 136.15 C95.74 137.49 95.97 138.83 96.21 140.17 C96.83 143.79 97.46 147.4 98.09 151.01 C98.49 153.27 98.88 155.53 99.27 157.8 C100.65 165.69 102.02 173.59 103.41 181.49 C104.69 188.84 105.97 196.19 107.24 203.54 C108.33 209.86 109.44 216.19 110.54 222.52 C111.2 226.29 111.86 230.06 112.51 233.83 C113.12 237.37 113.74 240.92 114.37 244.46 C114.7 246.37 115.03 248.29 115.36 250.2 C116.83 258.47 118.41 265.07 125.24 270.53 C131.08 272.35 136.34 272.82 142.42 272.79 C143.76 272.8 143.76 272.8 145.12 272.8 C148.09 272.81 151.05 272.81 154.02 272.81 C156.15 272.81 158.29 272.82 160.42 272.82 C166.21 272.83 171.99 272.84 177.78 272.83 C182.61 272.83 187.44 272.84 192.28 272.84 C203.68 272.85 215.09 272.85 226.49 272.85 C238.25 272.84 250.01 272.85 261.76 272.87 C271.87 272.89 281.97 272.9 292.07 272.89 C298.1 272.89 304.13 272.9 310.16 272.91 C315.83 272.92 321.5 272.92 327.18 272.91 C329.25 272.9 331.33 272.91 333.41 272.92 C336.25 272.93 339.09 272.92 341.94 272.91 C342.75 272.91 343.57 272.92 344.41 272.93 C351.35 272.86 357.68 271.65 363.12 267.16 C368.56 259.63 368.91 247.31 370.42 238.33 C370.71 236.62 370.71 236.62 371.01 234.88 C371.65 231.15 372.28 227.42 372.91 223.7 C373.24 221.75 373.57 219.8 373.91 217.85 C374.94 211.74 375.98 205.63 377.01 199.52 C378.08 193.24 379.15 186.95 380.22 180.67 C381.26 174.6 382.29 168.52 383.32 162.45 C383.75 159.87 384.19 157.3 384.63 154.73 C385.24 151.14 385.85 147.54 386.45 143.95 C386.73 142.36 386.73 142.36 387.01 140.75 C388.45 132.1 389.55 125.04 384.24 117.53 C379.16 113.31 374.7 112.41 368.24 112.41 C367.25 112.41 366.26 112.4 365.24 112.4 C364.16 112.41 363.08 112.41 361.97 112.41 C360.25 112.41 360.25 112.41 358.48 112.41 C355.29 112.41 352.1 112.41 348.91 112.42 C345.46 112.42 342.02 112.42 338.57 112.42 C332.61 112.42 326.64 112.42 320.67 112.43 C312.05 112.43 303.42 112.44 294.8 112.44 C280.8 112.44 266.8 112.45 252.81 112.46 C239.21 112.46 225.62 112.47 212.02 112.48 C210.77 112.48 210.77 112.48 209.48 112.48 C205.28 112.48 201.08 112.48 196.87 112.48 C162 112.49 127.12 112.51 92.24 112.53 Z " fill="#000000" transform="translate(53.7578125,31.46875)"/>
<path d="M0 0 C1.44 0.01 1.44 0.01 2.9 0.02 C15.86 0.34 26.18 4.26 36.31 12.5 C37.13 13.12 37.96 13.74 38.8 14.38 C48.28 22.41 55.43 35.25 56.51 47.74 C57.08 65.02 55.58 78.57 44.31 92.5 C43.55 93.55 42.79 94.6 42 95.69 C32.8 105.31 19.44 112.22 6.05 112.97 C4.24 113 2.43 113.01 0.62 113 C-0.33 112.99 -1.29 112.99 -2.27 112.98 C-15.26 112.66 -25.53 108.72 -35.69 100.5 C-36.74 99.74 -37.79 98.97 -38.88 98.19 C-48.5 88.99 -55.41 75.63 -56.16 62.24 C-56.19 60.43 -56.2 58.62 -56.19 56.81 C-56.18 55.86 -56.18 54.9 -56.17 53.91 C-55.85 40.93 -51.91 30.66 -43.69 20.5 C-42.92 19.45 -42.16 18.4 -41.38 17.31 C-30.46 5.89 -15.65 -0.11 0 0 Z M-19.24 43.4 C-23.37 49.39 -23.4 55.45 -22.69 62.5 C-20.91 69.14 -16.24 73.67 -10.69 77.5 C-4.69 80.44 2.2 80.6 8.62 78.88 C14.75 76.18 19.55 71.09 22.48 65.11 C24.39 59.1 24.38 52 21.81 46.19 C18.33 40.25 12.88 35.58 6.31 33.5 C-5.12 32.14 -11.87 34.77 -19.24 43.4 Z " fill="#000000" transform="translate(375.6875,367.5)"/>
<path d="M0 0 C1.44 0.01 1.44 0.01 2.9 0.02 C15.86 0.34 26.18 4.26 36.31 12.5 C37.13 13.12 37.96 13.74 38.8 14.38 C48.28 22.41 55.43 35.25 56.51 47.74 C57.08 65.02 55.58 78.57 44.31 92.5 C43.55 93.55 42.79 94.6 42 95.69 C32.8 105.31 19.44 112.22 6.05 112.97 C4.24 113 2.43 113.01 0.62 113 C-0.33 112.99 -1.29 112.99 -2.27 112.98 C-15.26 112.66 -25.53 108.72 -35.69 100.5 C-36.74 99.74 -37.79 98.97 -38.88 98.19 C-48.5 88.99 -55.41 75.63 -56.16 62.24 C-56.19 60.43 -56.2 58.62 -56.19 56.81 C-56.18 55.86 -56.18 54.9 -56.17 53.91 C-55.85 40.93 -51.91 30.66 -43.69 20.5 C-42.92 19.45 -42.16 18.4 -41.38 17.31 C-30.46 5.89 -15.65 -0.11 0 0 Z M-19.24 43.4 C-23.37 49.39 -23.4 55.45 -22.69 62.5 C-20.91 69.14 -16.24 73.67 -10.69 77.5 C-4.69 80.44 2.2 80.6 8.62 78.88 C14.75 76.18 19.55 71.09 22.48 65.11 C24.39 59.1 24.38 52 21.81 46.19 C18.33 40.25 12.88 35.58 6.31 33.5 C-5.12 32.14 -11.87 34.77 -19.24 43.4 Z " fill="#000000" transform="translate(215.6875,367.5)"/>
</svg>
