<?xml version="1.0" encoding="UTF-8"?>
<!-- Generator: visioncortex VTracer 0.6.3 -->
<svg version="1.1" xmlns="http://www.w3.org/2000/svg" width="512" height="512">
<path d="M0 0 C1.73 -0 3.47 -0.01 5.2 -0.02 C9.93 -0.04 14.66 -0.03 19.39 -0.01 C24.51 -0.01 29.62 -0.02 34.74 -0.03 C44.75 -0.05 54.75 -0.04 64.76 -0.03 C72.89 -0.02 81.03 -0.02 89.17 -0.03 C90.33 -0.03 91.48 -0.03 92.68 -0.03 C95.04 -0.03 97.39 -0.03 99.75 -0.03 C121.82 -0.04 143.89 -0.03 165.97 -0.01 C184.89 0.01 203.81 0 222.74 -0.01 C244.73 -0.03 266.73 -0.04 288.72 -0.03 C291.07 -0.03 293.42 -0.03 295.77 -0.03 C297.5 -0.03 297.5 -0.03 299.27 -0.03 C307.39 -0.02 315.51 -0.03 323.63 -0.04 C333.53 -0.05 343.44 -0.05 353.34 -0.02 C358.39 -0.01 363.44 -0.01 368.49 -0.02 C373.12 -0.03 377.74 -0.03 382.37 -0.01 C384.04 -0 385.71 -0 387.38 -0.01 C402.47 -0.1 415.04 2.2 427.47 11.51 C428.56 12.33 428.56 12.33 429.68 13.16 C439.74 21.34 445.81 32.88 448.47 45.51 C448.56 47.19 448.6 48.87 448.6 50.56 C448.6 51.58 448.61 52.6 448.61 53.66 C448.61 55.34 448.61 55.34 448.61 57.06 C448.62 58.26 448.62 59.45 448.62 60.68 C448.63 64 448.64 67.32 448.64 70.64 C448.64 74.22 448.65 77.79 448.66 81.37 C448.68 90.02 448.69 98.66 448.7 107.3 C448.71 111.38 448.71 115.45 448.72 119.52 C448.73 133.07 448.75 146.62 448.76 160.16 C448.76 163.68 448.76 167.19 448.76 170.71 C448.76 171.58 448.76 172.45 448.76 173.35 C448.77 187.49 448.8 201.63 448.83 215.77 C448.86 230.3 448.88 244.83 448.88 259.35 C448.89 267.5 448.89 275.66 448.92 283.81 C448.94 290.75 448.95 297.7 448.94 304.64 C448.93 308.18 448.94 311.72 448.96 315.26 C448.98 319.11 448.97 322.96 448.95 326.81 C448.97 328.47 448.97 328.47 448.99 330.15 C448.86 345.34 443.06 358.29 432.79 369.34 C422.26 379.16 409.69 384.62 395.33 384.64 C394.62 384.64 393.91 384.65 393.18 384.65 C390.79 384.66 388.4 384.66 386.01 384.66 C384.29 384.66 382.56 384.66 380.83 384.67 C376.08 384.68 371.33 384.68 366.58 384.68 C361.46 384.69 356.34 384.7 351.22 384.7 C338.85 384.72 326.47 384.73 314.1 384.74 C308.28 384.75 302.45 384.75 296.62 384.76 C277.25 384.78 257.87 384.79 238.5 384.8 C233.47 384.8 228.44 384.8 223.41 384.8 C221.54 384.8 221.54 384.8 219.63 384.8 C199.39 384.81 179.15 384.84 158.92 384.87 C138.14 384.9 117.35 384.92 96.57 384.92 C84.91 384.93 73.24 384.94 61.58 384.96 C51.64 384.98 41.7 384.99 31.77 384.98 C26.7 384.98 21.63 384.98 16.57 385 C11.92 385.02 7.27 385.01 2.63 385 C0.95 385 -0.72 385 -2.39 385.01 C-17.5 385.11 -30.11 382.85 -42.53 373.51 C-43.33 372.92 -44.12 372.34 -44.93 371.73 C-55.68 363.04 -62.27 350.08 -63.91 336.4 C-64.04 333.21 -64.07 330.05 -64.04 326.87 C-64.05 325.67 -64.05 324.47 -64.06 323.23 C-64.07 319.93 -64.07 316.63 -64.06 313.33 C-64.05 309.76 -64.06 306.19 -64.07 302.62 C-64.09 295.64 -64.09 288.65 -64.08 281.67 C-64.07 276 -64.07 270.32 -64.07 264.64 C-64.07 263.83 -64.07 263.02 -64.07 262.18 C-64.07 260.54 -64.07 258.89 -64.08 257.24 C-64.09 241.83 -64.07 226.41 -64.05 211 C-64.03 197.79 -64.04 184.59 -64.06 171.38 C-64.08 156.02 -64.09 140.66 -64.07 125.3 C-64.07 123.66 -64.07 122.02 -64.07 120.38 C-64.07 119.57 -64.07 118.76 -64.07 117.93 C-64.06 112.27 -64.07 106.6 -64.08 100.93 C-64.09 94.02 -64.09 87.11 -64.07 80.2 C-64.06 76.67 -64.05 73.15 -64.06 69.63 C-64.08 65.8 -64.06 61.97 -64.04 58.15 C-64.05 57.05 -64.06 55.95 -64.07 54.82 C-63.92 39.78 -58.19 26.69 -47.98 15.74 C-33.87 2.85 -18.45 -0.11 0 0 Z M-26.53 38.51 C-30.61 44.21 -33.65 49.27 -32.53 56.51 C-30.19 59.05 -27.36 60.72 -24.42 62.52 C-23.56 63.07 -22.7 63.62 -21.82 64.2 C-18.97 66.03 -16.09 67.83 -13.22 69.63 C-11.21 70.92 -9.2 72.21 -7.2 73.5 C-4.09 75.51 -0.97 77.51 2.15 79.51 C11.65 85.59 21 91.87 30.33 98.22 C46.53 109.23 62.84 120.06 79.21 130.81 C92.25 139.38 105.23 148.03 118.15 156.77 C123.47 160.37 128.8 163.96 134.12 167.55 C138.07 170.22 142.02 172.88 145.96 175.55 C149.33 177.83 152.7 180.1 156.08 182.35 C157.27 183.14 158.45 183.94 159.63 184.75 C173.36 194.1 186.75 198.13 203.29 195.37 C211.46 193.15 218.38 189.61 225.3 184.79 C226.12 184.23 226.94 183.68 227.79 183.1 C229.55 181.89 231.32 180.69 233.08 179.47 C237.87 176.17 242.68 172.91 247.49 169.64 C248.48 168.96 249.48 168.28 250.5 167.59 C260.75 160.61 271.1 153.8 281.47 147.01 C296.04 137.44 310.53 127.78 324.97 118.01 C338.8 108.65 352.68 99.37 366.63 90.19 C369.43 88.35 372.22 86.5 375.01 84.66 C382.37 79.81 389.72 74.96 397.16 70.25 C399.77 68.6 402.36 66.93 404.95 65.26 C406.66 64.17 408.38 63.11 410.11 62.05 C412.77 60.33 415.2 58.72 417.47 56.51 C418.7 50.62 416.62 46.38 413.47 41.51 C409.44 36.84 404.68 32.61 398.47 31.51 C396.17 31.41 393.86 31.38 391.56 31.38 C390.51 31.37 390.51 31.37 389.45 31.37 C387.1 31.36 384.75 31.37 382.4 31.37 C380.7 31.36 379 31.36 377.31 31.36 C372.63 31.35 367.96 31.35 363.29 31.35 C358.25 31.35 353.21 31.34 348.18 31.33 C337.16 31.32 326.15 31.31 315.13 31.31 C308.25 31.3 301.38 31.3 294.5 31.3 C275.47 31.28 256.43 31.27 237.4 31.27 C236.18 31.27 234.96 31.27 233.7 31.27 C232.48 31.27 231.26 31.27 230 31.27 C227.53 31.27 225.05 31.27 222.58 31.27 C220.74 31.27 220.74 31.27 218.86 31.27 C198.96 31.26 179.06 31.25 159.16 31.22 C138.74 31.2 118.32 31.19 97.9 31.18 C86.43 31.18 74.96 31.18 63.49 31.16 C53.72 31.14 43.96 31.14 34.19 31.15 C29.21 31.15 24.23 31.15 19.24 31.14 C14.68 31.12 10.12 31.13 5.56 31.14 C3.91 31.14 2.26 31.14 0.61 31.13 C-14.21 30.95 -14.21 30.95 -26.53 38.51 Z M-33.53 93.51 C-33.58 123.28 -33.62 153.04 -33.64 182.81 C-33.64 186.33 -33.64 189.84 -33.64 193.36 C-33.64 194.06 -33.65 194.76 -33.65 195.48 C-33.65 206.81 -33.67 218.13 -33.69 229.46 C-33.71 241.09 -33.72 252.72 -33.72 264.34 C-33.72 270.87 -33.73 277.4 -33.75 283.93 C-33.76 290.08 -33.76 296.22 -33.76 302.37 C-33.76 304.63 -33.76 306.88 -33.77 309.13 C-33.78 312.22 -33.78 315.3 -33.77 318.38 C-33.78 319.27 -33.79 320.15 -33.79 321.07 C-33.75 330.21 -32.84 339.43 -26.53 346.51 C-19.94 351.91 -15.11 353.63 -6.63 353.64 C-5.58 353.64 -5.58 353.64 -4.52 353.65 C-2.17 353.65 0.18 353.65 2.53 353.65 C4.23 353.65 5.93 353.65 7.63 353.66 C12.3 353.67 16.97 353.67 21.64 353.67 C26.68 353.67 31.72 353.68 36.75 353.68 C47.77 353.7 58.79 353.7 69.8 353.71 C76.68 353.71 83.56 353.72 90.43 353.72 C109.47 353.73 128.5 353.74 147.53 353.75 C148.75 353.75 149.97 353.75 151.23 353.75 C152.45 353.75 153.67 353.75 154.93 353.75 C157.4 353.75 159.88 353.75 162.35 353.75 C164.2 353.75 164.2 353.75 166.07 353.75 C185.97 353.75 205.87 353.77 225.77 353.79 C246.19 353.82 266.61 353.83 287.03 353.83 C298.5 353.83 309.97 353.84 321.44 353.86 C331.21 353.87 340.97 353.88 350.74 353.87 C355.72 353.86 360.7 353.86 365.69 353.88 C370.25 353.89 374.81 353.89 379.37 353.88 C381.02 353.88 382.67 353.88 384.32 353.89 C397.34 354.11 397.34 354.11 408.89 348.71 C417.6 339.69 418.63 330.98 418.59 318.74 C418.59 317.78 418.59 316.81 418.59 315.82 C418.59 312.59 418.58 309.37 418.58 306.14 C418.58 303.82 418.58 301.51 418.58 299.19 C418.58 292.91 418.57 286.63 418.57 280.34 C418.56 273.78 418.56 267.21 418.56 260.64 C418.56 249.62 418.55 238.6 418.54 227.58 C418.53 216.23 418.52 204.88 418.52 193.53 C418.52 192.83 418.52 192.13 418.52 191.4 C418.52 187.89 418.52 184.38 418.52 180.87 C418.51 151.75 418.49 122.63 418.47 93.51 C415.28 94.75 412.48 96.01 409.65 97.94 C408.93 98.42 408.21 98.91 407.47 99.42 C406.69 99.95 405.92 100.48 405.12 101.03 C404.29 101.59 403.46 102.15 402.61 102.73 C400.82 103.95 399.02 105.17 397.23 106.39 C392.37 109.71 387.49 113.01 382.62 116.31 C381.61 116.99 380.6 117.67 379.56 118.38 C369.26 125.35 358.87 132.18 348.47 139.01 C333.9 148.57 319.4 158.24 304.97 168.01 C289.9 178.2 274.78 188.31 259.59 198.32 C258.67 198.93 257.74 199.54 256.79 200.17 C240.3 211.06 240.3 211.06 232.15 216.15 C231.21 216.74 230.26 217.33 229.29 217.94 C211.5 227.81 188.94 228.47 169.54 223.57 C153.62 218.81 140.06 208.35 126.48 199.1 C121.75 195.87 117.01 192.67 112.27 189.46 C111.29 188.8 110.31 188.14 109.3 187.46 C99.08 180.55 88.78 173.78 78.47 167.01 C63.9 157.44 49.4 147.78 34.97 138.01 C20.67 128.34 6.34 118.73 -8.07 109.22 C-10.03 107.92 -12 106.62 -13.97 105.32 C-16.68 103.52 -19.41 101.72 -22.13 99.93 C-22.94 99.39 -23.75 98.86 -24.58 98.3 C-25.33 97.81 -26.07 97.33 -26.84 96.82 C-27.48 96.4 -28.13 95.97 -28.79 95.53 C-30.67 94.35 -30.67 94.35 -33.53 93.51 Z " fill="#000000" transform="translate(63.5341796875,63.4920654296875)"/>
</svg>
