<?xml version="1.0" encoding="UTF-8"?>
<!-- Generator: visioncortex VTracer 0.6.3 -->
<svg version="1.1" xmlns="http://www.w3.org/2000/svg" width="512" height="512">
<path d="M0 0 C1 0.54 1 0.54 2.02 1.1 C29.85 16.35 55.57 37.87 75 63 C75.76 63.93 76.52 64.87 77.31 65.83 C85.15 75.62 91.62 86.21 98 97 C98.39 97.66 98.79 98.32 99.2 99.01 C111.9 120.6 119.75 145.25 124.75 169.69 C124.95 170.66 125.15 171.63 125.35 172.63 C128.32 187.95 129.38 202.99 129.31 218.56 C129.31 219.87 129.31 219.87 129.31 221.21 C129.26 235.32 128.58 249.1 126 263 C125.83 263.94 125.66 264.88 125.48 265.85 C117.72 307.06 101.1 345.78 74 378 C73.59 378.5 73.17 379 72.75 379.52 C61.44 393.26 49.13 406.14 35 417 C33.53 418.18 33.53 418.18 32.04 419.38 C5.61 440.43 -35.99 467 -71 467 C-71 407.93 -71 348.86 -71 288 C-55.16 288 -39.32 288 -23 288 C-21.92 280.58 -21.92 280.58 -20.81 273 C-19.11 261.38 -17.38 249.77 -15.58 238.17 C-15.36 236.77 -15.14 235.37 -14.93 233.96 C-14.63 232.01 -14.32 230.05 -14.02 228.1 C-13.84 226.99 -13.67 225.88 -13.49 224.74 C-13 222 -13 222 -12 219 C-36.09 219 -60.18 219 -85 219 C-85.1 209.68 -85.21 200.35 -85.31 190.75 C-85.38 186.37 -85.38 186.37 -85.45 181.91 C-85.47 179.56 -85.48 177.21 -85.49 174.86 C-85.51 173.67 -85.54 172.48 -85.57 171.25 C-85.57 160.38 -82.66 150.68 -75.02 142.68 C-65.45 134.69 -54.36 133.7 -42.41 133.8 C-41.35 133.81 -40.3 133.81 -39.21 133.81 C-35.31 133.82 -31.4 133.85 -27.5 133.88 C-18.75 133.92 -10.01 133.96 -1 134 C-1 113.87 -1 93.74 -1 73 C-7.93 72.5 -7.93 72.5 -15 72 C-19.37 71.46 -19.37 71.46 -21.36 71.2 C-31.6 69.91 -41.85 69.76 -52.16 69.7 C-53.86 69.69 -55.56 69.68 -57.27 69.66 C-84.98 69.38 -109.78 76.63 -130.19 96.09 C-148.32 115.14 -153.4 141.39 -153.51 166.75 C-153.53 168.28 -153.55 169.8 -153.57 171.32 C-153.61 175.27 -153.64 179.21 -153.67 183.15 C-153.71 187.92 -153.76 192.69 -153.81 197.45 C-153.89 204.63 -153.94 211.82 -154 219 C-172.48 219 -190.96 219 -210 219 C-210 241.77 -210 264.54 -210 288 C-191.52 288 -173.04 288 -154 288 C-154 347.07 -154 406.14 -154 467 C-163.22 465.68 -171.74 464.28 -180.62 461.81 C-181.75 461.5 -182.87 461.2 -184.02 460.88 C-220.95 450.54 -254.31 433.62 -283 408 C-283.54 407.53 -284.07 407.05 -284.62 406.56 C-333.56 363.1 -361.85 302.15 -366.82 237.12 C-370.56 172.67 -351.32 107.01 -308.39 58.03 C-306.7 56.17 -305 54.31 -303.29 52.47 C-301.37 50.4 -299.55 48.29 -297.75 46.12 C-279.24 24.99 -254.7 8.95 -230 -4 C-229.33 -4.35 -228.67 -4.71 -227.98 -5.07 C-157.96 -41.65 -68.52 -37.21 0 0 Z " fill="#000000" transform="translate(374,37)"/>
</svg>
