<?xml version="1.0" encoding="UTF-8"?>
<!-- Generator: visioncortex VTracer 0.6.3 -->
<svg version="1.1" xmlns="http://www.w3.org/2000/svg" width="512" height="512">
<path d="M0 0 C10.9 8.9 20.6 19.47 30.53 29.41 C32.37 31.26 34.22 33.1 36.06 34.95 C40.01 38.89 43.96 42.84 47.9 46.79 C53.6 52.51 59.31 58.22 65.02 63.92 C74.28 73.19 83.54 82.46 92.8 91.72 C101.79 100.72 110.77 109.72 119.76 118.71 C120.32 119.26 120.87 119.82 121.45 120.39 C124.23 123.18 127.02 125.97 129.81 128.76 C152.87 151.83 175.94 174.92 199 198 C202.04 196.64 204.13 195.11 206.48 192.76 C207.15 192.08 207.83 191.41 208.52 190.72 C209.25 189.98 209.99 189.24 210.74 188.47 C211.92 187.29 211.92 187.29 213.12 186.09 C215.75 183.45 218.38 180.8 221.01 178.15 C222.9 176.26 224.78 174.37 226.67 172.48 C230.74 168.4 234.8 164.31 238.86 160.23 C244.74 154.31 250.63 148.41 256.52 142.5 C266.09 132.91 275.65 123.32 285.21 113.72 C285.78 113.15 286.36 112.57 286.95 111.98 C295.06 103.83 303.17 95.69 311.28 87.54 C311.85 86.97 312.42 86.39 313.01 85.8 C313.58 85.23 314.15 84.66 314.73 84.07 C324.25 74.51 333.77 64.95 343.3 55.41 C349.17 49.52 355.04 43.63 360.9 37.73 C364.91 33.68 368.94 29.65 372.97 25.61 C375.3 23.29 377.62 20.96 379.93 18.62 C382.44 16.08 384.97 13.56 387.5 11.04 C388.22 10.3 388.94 9.57 389.68 8.82 C397.5 1.07 406.49 -5.17 417.81 -5.33 C418.49 -5.32 419.17 -5.32 419.88 -5.31 C420.58 -5.31 421.29 -5.3 422.03 -5.3 C427.47 -5.18 431.19 -4.49 436 -2 C436.66 -1.66 437.32 -1.32 438 -0.97 C446.58 3.85 452.48 11.46 455.59 20.75 C457.86 33.13 455.76 43.26 448.83 53.53 C445.57 57.92 441.72 61.7 437.85 65.55 C436.94 66.46 436.02 67.38 435.08 68.33 C432.57 70.86 430.05 73.38 427.53 75.89 C424.8 78.62 422.08 81.35 419.36 84.08 C414.04 89.43 408.71 94.76 403.37 100.09 C399.04 104.43 394.7 108.77 390.37 113.11 C389.12 114.36 387.87 115.61 386.62 116.87 C386 117.49 385.37 118.11 384.73 118.76 C372.98 130.53 361.21 142.3 349.44 154.06 C338.68 164.81 327.94 175.58 317.2 186.35 C306.16 197.42 295.11 208.48 284.05 219.54 C277.85 225.74 271.65 231.94 265.46 238.16 C260.2 243.45 254.92 248.73 249.63 254 C246.93 256.68 244.24 259.37 241.56 262.07 C238.65 265.01 235.72 267.92 232.79 270.84 C231.95 271.68 231.12 272.53 230.25 273.4 C220.64 282.88 211.61 287.29 198.21 287.32 C183.63 287.05 174.4 277.7 164.61 267.89 C163.24 266.52 163.24 266.52 161.85 265.14 C159.33 262.63 156.82 260.12 154.31 257.61 C151.59 254.9 148.87 252.19 146.15 249.48 C140.21 243.57 134.28 237.65 128.36 231.72 C124.65 228.02 120.94 224.32 117.24 220.62 C106.96 210.37 96.69 200.11 86.43 189.85 C85.77 189.19 85.12 188.54 84.44 187.86 C83.11 186.53 81.78 185.2 80.45 183.88 C79.79 183.22 79.13 182.56 78.45 181.88 C77.79 181.22 77.13 180.55 76.45 179.87 C65.74 169.17 55.01 158.47 44.29 147.78 C33.26 136.79 22.24 125.79 11.23 114.79 C5.06 108.61 -1.12 102.44 -7.31 96.28 C-12.58 91.03 -17.84 85.78 -23.09 80.52 C-25.77 77.83 -28.45 75.15 -31.14 72.49 C-34.06 69.59 -36.96 66.67 -39.87 63.75 C-41.13 62.5 -41.13 62.5 -42.43 61.23 C-51.95 51.57 -56.27 42.59 -56.25 29.14 C-56.07 18.67 -52.62 11.72 -45.34 4.31 C-32.79 -7.12 -14.52 -8.72 0 0 Z " fill="#000000" transform="translate(56,115)"/>
</svg>
