<?xml version="1.0" encoding="UTF-8"?>
<!-- Generator: visioncortex VTracer 0.6.3 -->
<svg version="1.1" xmlns="http://www.w3.org/2000/svg" width="512" height="512">
<path d="M0 0 C5 0.01 10 0 15 -0 C23.38 -0.01 31.77 -0 40.15 0.01 C49.75 0.02 59.34 0.02 68.94 0 C77.29 -0 85.63 -0.01 93.97 -0 C98.91 0 103.85 0 108.79 -0 C198.42 -0.11 198.42 -0.11 235.45 19.27 C236.05 19.58 236.65 19.89 237.27 20.21 C245.75 24.67 253.39 29.76 260.45 36.27 C261.06 36.83 261.67 37.39 262.3 37.97 C289.34 63.17 302.76 94.81 307.45 131.27 C307.59 132.34 307.59 132.34 307.73 133.43 C308.83 143.51 308.61 153.64 308.61 163.76 C308.62 165.94 308.62 168.11 308.63 170.29 C308.64 176.18 308.65 182.07 308.65 187.96 C308.66 191.65 308.66 195.35 308.66 199.04 C308.68 210.63 308.69 222.22 308.69 233.81 C308.69 235.79 308.69 235.79 308.69 237.8 C308.69 238.46 308.69 239.12 308.69 239.8 C308.7 251.12 308.72 262.43 308.74 273.74 C308.76 284.08 308.77 294.41 308.78 304.74 C308.78 310.89 308.78 317.04 308.8 323.19 C308.95 377.93 306.06 430.05 265.83 471.39 C238.65 498.29 201.71 509.01 164.39 511.36 C163.71 511.4 163.03 511.45 162.34 511.49 C143.81 512.62 125.26 512.56 106.7 512.54 C101.68 512.53 96.65 512.54 91.62 512.54 C83.19 512.54 74.76 512.54 66.33 512.53 C56.68 512.52 47.02 512.52 37.37 512.53 C28.98 512.54 20.59 512.54 12.2 512.54 C7.24 512.54 2.27 512.53 -2.7 512.54 C-20.98 512.56 -39.23 512.51 -57.48 511.36 C-59.38 511.24 -59.38 511.24 -61.31 511.12 C-95.01 508.75 -129.41 498.93 -154.42 475.28 C-156.26 473.54 -158.14 471.97 -160.11 470.39 C-187.7 446.74 -198.65 407.03 -201.55 372.27 C-201.75 369.19 -201.91 366.1 -202.06 363.01 C-202.11 362.15 -202.15 361.28 -202.19 360.38 C-202.64 350.85 -202.91 341.31 -203.11 331.77 C-203.13 330.77 -203.15 329.77 -203.17 328.73 C-204.27 273.34 -204.7 217.64 -202.55 162.27 C-202.5 161.14 -202.5 161.14 -202.46 159.98 C-200.45 110.05 -188.57 69.39 -151.55 34.46 C-145.66 29.15 -139.46 25.1 -132.55 21.27 C-131.96 20.94 -131.37 20.6 -130.76 20.26 C-91.1 -1.89 -44.03 -0.06 0 0 Z M-128.18 77.8 C-160.47 111.42 -155.71 164.92 -155.71 207.94 C-155.72 210.59 -155.72 213.25 -155.72 215.91 C-155.73 225.26 -155.73 234.6 -155.73 243.95 C-155.73 252.54 -155.74 261.14 -155.76 269.74 C-155.77 277.21 -155.78 284.68 -155.78 292.16 C-155.78 296.58 -155.78 301 -155.79 305.42 C-155.83 323.3 -155.62 341.13 -154.64 358.98 C-154.58 360.1 -154.58 360.1 -154.52 361.25 C-152.93 389.87 -146.81 415.09 -126.55 436.27 C-125.61 437.32 -125.61 437.32 -124.65 438.39 C-103.88 460.82 -69.71 464.05 -41.04 465.16 C-27.87 465.57 -14.7 465.65 -1.53 465.8 C1.93 465.84 5.39 465.89 8.85 465.93 C38.42 466.31 67.97 466.33 97.54 465.98 C101.79 465.93 106.04 465.88 110.29 465.85 C127.29 465.69 144.26 465.46 161.23 464.34 C162.41 464.26 163.6 464.18 164.83 464.1 C191.17 462.18 214.14 455 233.45 436.27 C234.06 435.73 234.68 435.19 235.31 434.64 C256.94 414.93 260.78 382.55 262.12 355.03 C262.78 339.52 262.62 323.98 262.62 308.45 C262.62 305.6 262.62 302.74 262.63 299.89 C262.63 289.86 262.64 279.84 262.64 269.82 C262.64 260.58 262.65 251.34 262.66 242.09 C262.68 234.08 262.68 226.06 262.68 218.04 C262.68 213.29 262.68 208.54 262.69 203.79 C262.73 185.96 262.66 168.18 261.54 150.38 C261.42 148.46 261.42 148.46 261.3 146.5 C259.33 118.41 251.42 94.53 231.45 74.27 C230.47 73.26 230.47 73.26 229.46 72.24 C196.14 40.77 138.9 47.1 96.81 47.13 C92.71 47.14 88.61 47.13 84.51 47.13 C77.63 47.13 70.76 47.13 63.88 47.14 C56.01 47.14 48.15 47.14 40.28 47.14 C33.44 47.13 26.59 47.13 19.75 47.13 C15.7 47.14 11.65 47.14 7.6 47.13 C-65.55 45.04 -65.55 45.04 -128.18 77.8 Z " fill="#000000" transform="translate(203.5476779937744,-0.26865100860595703)"/>
<path d="M0 0 C2.48 2.19 4.89 4.44 7.28 6.72 C8.07 7.44 8.87 8.17 9.69 8.91 C33.2 31 46.32 63.95 47.49 95.87 C48.34 131.48 37.09 165.14 12.54 191.36 C11.79 192.14 11.05 192.92 10.28 193.72 C9.52 194.54 8.76 195.36 7.98 196.21 C-5.48 210.36 -22.47 220.11 -40.72 226.72 C-41.77 227.1 -42.82 227.49 -43.9 227.88 C-77.12 239.02 -114.03 235.2 -145.22 219.85 C-158.72 212.9 -170.15 203.58 -180.72 192.72 C-181.23 192.26 -181.74 191.8 -182.26 191.32 C-203.23 171.74 -215.52 139.36 -216.85 111.07 C-217.89 73.9 -207.73 39.58 -181.98 12.08 C-181.24 11.3 -180.49 10.52 -179.72 9.72 C-178.97 8.9 -178.21 8.08 -177.43 7.24 C-131.22 -41.31 -50.27 -42.05 0 0 Z M-141.72 38.72 C-142.48 39.39 -143.25 40.06 -144.03 40.74 C-159.73 55.4 -168.85 76.74 -169.88 98.02 C-170.45 121.86 -162.29 143.25 -145.96 160.49 C-145.22 161.23 -144.48 161.96 -143.72 162.72 C-143.03 163.42 -142.33 164.11 -141.61 164.83 C-125.04 180.44 -103.35 187.55 -80.81 186.97 C-61.01 186.03 -42.48 177.7 -27.72 164.72 C-26.96 164.06 -26.2 163.39 -25.41 162.7 C-9.66 147.98 -0.87 126.48 0.43 105.18 C1.16 82.77 -6.97 61.49 -21.72 44.72 C-22.39 43.96 -23.06 43.2 -23.74 42.41 C-38.46 26.66 -59.97 17.87 -81.27 16.57 C-103.68 15.84 -124.96 23.97 -141.72 38.72 Z " fill="#000000" transform="translate(341.72265625,154.27734375)"/>
<path d="M0 0 C6.48 5.31 10.85 12.01 12.48 20.3 C13.42 30.59 11.23 39.26 4.59 47.26 C-2.74 54.38 -10.33 56.59 -20.25 56.63 C-28.34 56.49 -35.75 54.23 -41.52 48.3 C-47.69 40.21 -51.08 32.15 -50.34 21.86 C-48.99 13.16 -45.01 6.05 -38.27 0.37 C-26.53 -7.97 -11.93 -8.03 0 0 Z " fill="#000000" transform="translate(412.51953125,93.6953125)"/>
</svg>
