<?xml version="1.0" encoding="UTF-8"?>
<svg version="1.1" xmlns="http://www.w3.org/2000/svg" width="512" height="512">
<path d="M0 0 C30.72326911 -0.71254512 61.2442549 9.59838799 84.23828125 30.12109375 C85.06585938 30.82878906 85.8934375 31.53648438 86.74609375 32.265625 C100.99860746 44.66397157 114.02646898 59.96579003 122.23828125 77.12109375 C122.23828125 77.78109375 122.23828125 78.44109375 122.23828125 79.12109375 C122.89828125 79.12109375 123.55828125 79.12109375 124.23828125 79.12109375 C124.47289062 78.280625 124.7075 77.44015625 124.94921875 76.57421875 C126.44587983 72.56498118 128.45577438 69.38315229 130.86328125 65.87109375 C131.30986084 65.21214111 131.75644043 64.55318848 132.21655273 63.87426758 C135.96471976 58.40203727 139.9307693 53.16776455 144.23828125 48.12109375 C144.92277344 47.31414062 145.60726563 46.5071875 146.3125 45.67578125 C166.4177823 22.64675054 194.23472227 4.46750964 225.23828125 1.12109375 C226.67300781 0.95867188 226.67300781 0.95867188 228.13671875 0.79296875 C262.00202184 -2.51520996 296.43410945 5.71845551 323.4609375 26.83203125 C327.85799346 30.45604643 332.09130363 34.21431586 336.23828125 38.12109375 C336.90214844 38.72050781 337.56601562 39.31992188 338.25 39.9375 C357.91064008 58.40175224 369.95104727 85.29325463 376.23828125 111.12109375 C376.48602295 112.11858643 376.48602295 112.11858643 376.73876953 113.13623047 C381.8385854 134.86977876 381.96175905 162.56368092 376.23828125 184.12109375 C375.93229004 185.30880371 375.93229004 185.30880371 375.62011719 186.52050781 C372.54430638 198.19247108 368.53742795 209.28077202 363.23828125 220.12109375 C362.8721875 220.87245605 362.50609375 221.62381836 362.12890625 222.39794922 C356.41123369 233.98814798 349.90473279 244.72179739 342.23828125 255.12109375 C341.81546875 255.69553223 341.39265625 256.2699707 340.95703125 256.86181641 C327.20164044 275.404728 311.42771103 292.11141911 295.10058594 308.38916016 C292.97343341 310.51090384 290.85174564 312.63800866 288.73046875 314.765625 C287.35318542 316.14224815 285.97559226 317.51856141 284.59765625 318.89453125 C283.97663025 319.51758148 283.35560425 320.14063171 282.71575928 320.78256226 C278.95387991 324.52472184 275.0765801 328.08171564 271.05609131 331.54483032 C268.22110534 334.00310954 265.48303514 336.56310679 262.73828125 339.12109375 C255.27369398 346.03871155 247.59507015 352.68084747 239.86352539 359.296875 C235.47388063 363.05495374 231.10196758 366.83291959 226.73828125 370.62109375 C220.17222452 376.31975947 213.5783542 381.98514417 206.97216797 387.63720703 C204.05934079 390.13004899 201.14894064 392.62572141 198.23828125 395.12109375 C197.07162607 396.12110715 195.90495941 397.12110716 194.73828125 398.12109375 C194.16078125 398.61609375 193.58328125 399.11109375 192.98828125 399.62109375 C173.73828126 416.12109375 173.73828126 416.12109375 171.98852539 417.62084961 C170.82099897 418.62160981 169.65351855 419.62242367 168.48608398 420.62329102 C165.58294496 423.11210051 162.67903176 425.59999466 159.7734375 428.0859375 C159.20036865 428.57650635 158.6272998 429.0670752 158.03686523 429.57250977 C156.88435734 430.55905393 155.73152794 431.54522262 154.57836914 432.53100586 C151.4353127 435.22209069 148.30886065 437.93049923 145.19921875 440.66015625 C144.52753662 441.24804932 143.85585449 441.83594238 143.16381836 442.44165039 C141.8726792 443.57296292 140.58426406 444.70739465 139.29907227 445.84545898 C133.74570852 450.7055075 128.95857275 454.26539826 121.23828125 454.12109375 C113.91365667 452.65616883 109.53565058 448.02682214 104.3125 443.01953125 C101.57058101 440.39712519 98.70311199 437.99124704 95.73828125 435.62109375 C91.76196244 432.42175678 87.97182365 429.09502095 84.23828125 425.62109375 C79.70440845 421.40707984 75.02587215 417.43883943 70.20703125 413.5546875 C64.74723104 409.07908812 59.45901816 404.40274641 54.13476562 399.76757812 C51.15972936 397.18471966 48.16884065 394.62052461 45.17578125 392.05859375 C44.60239014 391.56770264 44.02899902 391.07681152 43.43823242 390.57104492 C42.28297607 389.58224172 41.12762149 388.59355326 39.97216797 387.60498047 C37.05934079 385.11213851 34.14894064 382.61646609 31.23828125 380.12109375 C30.07162607 379.12108035 28.90495941 378.12108034 27.73828125 377.12109375 C25.40494792 375.12109375 23.07161458 373.12109375 20.73828125 371.12109375 C19.8719104 370.37859375 19.8719104 370.37859375 18.98803711 369.62109375 C17.82190842 368.62141541 16.65605529 367.62141554 15.49047852 366.62109375 C12.56776041 364.11345794 9.64040639 361.61166191 6.703125 359.12109375 C-0.3118238 353.16158558 -7.151586 347.05498745 -13.88671875 340.78125 C-16.10700832 338.72687881 -18.34389181 336.71772726 -20.63671875 334.74609375 C-32.24926366 324.67801085 -43.20857811 313.86082749 -54.07080078 302.99731445 C-56.15118092 300.91914696 -58.23949535 298.8491693 -60.328125 296.77929688 C-67.60758331 289.52996328 -74.42628665 282.21940569 -80.76171875 274.12109375 C-81.63568996 273.0808585 -82.51581438 272.04570836 -83.40625 271.01953125 C-109.92075548 240.15760235 -132.69759609 199.78277865 -132.96484375 158.1328125 C-132.97190338 157.39629959 -132.97896301 156.65978668 -132.98623657 155.9009552 C-133.2166167 124.80720792 -133.2166167 124.80720792 -129.76171875 111.12109375 C-129.46370361 109.92589111 -129.46370361 109.92589111 -129.15966797 108.70654297 C-119.69840597 72.03086443 -98.42127875 38.84287085 -65.71386719 18.87060547 C-45.49693082 7.01978773 -23.35690345 1.02413579 0 0 Z M-65.76171875 58.12109375 C-66.43589844 58.69214844 -67.11007813 59.26320313 -67.8046875 59.8515625 C-82.38720908 73.32567389 -92.69987397 93.15764973 -97.76171875 112.12109375 C-98.05369141 113.15218262 -98.05369141 113.15218262 -98.3515625 114.20410156 C-104.31088366 135.8894091 -104.29949404 161.6098691 -97.76171875 183.12109375 C-97.56868164 183.79994629 -97.37564453 184.47879883 -97.17675781 185.17822266 C-88.63990384 214.69274816 -69.55382062 240.3779469 -48.99536133 262.68383789 C-46.89752607 264.97290658 -44.83906728 267.29219165 -42.78125 269.6171875 C-37.65033243 275.32195076 -32.27540467 280.75889577 -26.84106445 286.17211914 C-25.19430471 287.81349171 -23.5529978 289.46018194 -21.91210938 291.10742188 C-16.92559807 296.09712708 -11.91034112 301.00455852 -6.54321289 305.58911133 C-3.53369994 308.17711924 -0.65675522 310.90658769 2.23828125 313.62109375 C7.65582705 318.67218372 13.13610295 323.61709524 18.76855469 328.42822266 C20.55048271 329.95043442 22.33196726 331.47316349 24.11328125 332.99609375 C24.72212158 333.51606934 25.33096191 334.03604492 25.95825195 334.57177734 C29.49528386 337.60054151 32.9825461 340.67288838 36.42578125 343.80859375 C40.56659392 347.5662468 44.85471718 351.09875313 49.19921875 354.6171875 C54.67337935 359.12738923 59.99254431 363.81767665 65.34179688 368.47460938 C68.31683314 371.05746784 71.30772185 373.62166289 74.30078125 376.18359375 C74.87417236 376.67448486 75.44756348 377.16537598 76.03833008 377.67114258 C77.19358643 378.65994578 78.34894101 379.64863424 79.50439453 380.63720703 C82.41722175 383.13004902 85.32759323 385.62575475 88.23828125 388.12109375 C88.81513672 388.61544922 89.39199219 389.10980469 89.98632812 389.61914062 C92.91647118 392.13022411 95.84575121 394.64230243 98.7734375 397.15625 C106.56620185 403.84559505 114.38934983 410.49774299 122.23828125 417.12109375 C131.13364214 413.15842718 138.40653863 405.1077758 145.484375 398.59375 C149.07035409 395.37399856 152.80529617 392.36204199 156.5546875 389.3359375 C159.18536682 387.16476548 161.71770549 384.91868018 164.23828125 382.62109375 C168.53819916 378.70218123 172.99747672 375.02938506 177.51953125 371.37109375 C180.15975854 369.18607806 182.70557845 366.92937984 185.23828125 364.62109375 C188.55817611 361.59826954 191.93592237 358.69597214 195.42578125 355.87109375 C205.23099492 347.9269263 214.6965066 339.56998347 224.046875 331.09765625 C226.09366921 329.25152814 228.15959682 327.43116091 230.23828125 325.62109375 C234.04993643 322.30126505 237.8037983 318.91988237 241.55078125 315.52734375 C243.72291831 313.58252336 245.91060571 311.66050972 248.109375 309.74609375 C259.25813631 300.00167512 269.82162147 289.63741475 280.30078125 279.18359375 C280.79337433 278.69358887 281.28596741 278.20358398 281.79348755 277.69873047 C287.49564243 272.02025178 293.0295232 266.25886707 298.23828125 260.12109375 C299.13856465 259.08788047 300.03956236 258.05528898 300.94140625 257.0234375 C327.33573424 226.29752501 349.07221374 190.0816229 348.67578125 148.43359375 C348.67240753 147.73932281 348.66903381 147.04505188 348.66555786 146.32974243 C348.42989277 112.67300779 336.1626807 82.12458213 312.23828125 58.12109375 C295.35832889 42.44498295 272.40389131 32.12261449 249.23828125 31.12109375 C248.42875 31.08113281 247.61921875 31.04117188 246.78515625 31 C218.55568381 30.2983903 195.03481792 41.86014276 174.6015625 60.76171875 C157.95336998 77.3823936 146.5350326 98.96033247 138.41967773 120.81079102 C136.48793457 125.83114816 135.07051687 129.27630988 130.23828125 132.12109375 C125.228005 133.79118583 120.90784808 133.69902073 115.98828125 131.99609375 C109.97985351 127.89943847 108.00260852 121.3598258 105.55078125 114.80859375 C93.51904071 83.87550504 72.70592085 53.36528356 41.50390625 39.3984375 C30.7956853 34.84224277 19.89344797 31.73160248 8.23828125 31.12109375 C7.44679688 31.06824219 6.6553125 31.01539062 5.83984375 30.9609375 C-21.19667843 30.00426056 -45.5906061 40.8801557 -65.76171875 58.12109375 Z " fill="#FFFFFF" transform="translate(132.76171875,28.87890625)"/>
</svg>
