<?xml version="1.0" encoding="UTF-8"?>
<!-- Generator: visioncortex VTracer 0.6.3 -->
<svg version="1.1" xmlns="http://www.w3.org/2000/svg" width="512" height="512">
<path d="M0 0 C0.79 0.18 1.59 0.35 2.41 0.54 C8 1.82 13.51 3.33 19 5 C19.68 5.2 20.37 5.41 21.07 5.62 C41.81 11.96 61.63 22.06 79 35 C79.67 35.5 80.34 35.99 81.02 36.5 C97.32 48.78 112.12 63.38 124 80 C124.41 80.56 124.81 81.11 125.23 81.69 C142.14 105.04 153.19 131.85 159 160 C159.16 160.76 159.33 161.53 159.5 162.32 C169.83 212.63 157.93 267.97 130.4 310.89 C129.94 311.59 129.48 312.28 129 313 C134.55 319.77 140.75 325.85 146.95 332 C148.16 333.21 149.38 334.41 150.59 335.62 C153.18 338.2 155.78 340.79 158.38 343.37 C162.5 347.46 166.62 351.56 170.73 355.65 C172.14 357.06 173.55 358.47 174.96 359.87 C176.02 360.93 176.02 360.93 177.11 362.01 C186.67 371.54 196.24 381.06 205.82 390.58 C212.3 397.01 218.77 403.44 225.23 409.89 C228.64 413.29 232.05 416.69 235.48 420.09 C238.7 423.28 241.92 426.48 245.12 429.69 C246.3 430.86 247.47 432.03 248.65 433.19 C258.76 443.15 268.06 453.2 268.38 468.1 C268.35 480.51 265.78 489.78 257 499 C248.5 507.06 238.73 509.62 227.28 509.47 C210.02 508.75 199.7 497 188.23 485.46 C186.97 484.19 185.7 482.93 184.44 481.67 C181.04 478.26 177.64 474.85 174.24 471.44 C170.68 467.87 167.12 464.3 163.55 460.74 C156.81 453.99 150.08 447.24 143.34 440.49 C135.67 432.79 128 425.11 120.32 417.42 C104.54 401.62 88.77 385.81 73 370 C71.27 370.94 69.54 371.89 67.81 372.83 C66.36 373.62 66.36 373.62 64.88 374.42 C62.29 375.84 59.69 377.27 57.11 378.71 C38.68 388.77 19.56 395.75 -1 400 C-1.76 400.16 -2.52 400.33 -3.3 400.5 C-52.92 410.77 -107.76 399.28 -150.37 372.51 C-155.4 369.21 -160.24 365.68 -165 362 C-165.56 361.57 -166.12 361.14 -166.7 360.69 C-210.04 326.75 -235.81 278.35 -243.54 224.2 C-244.06 219.91 -244.19 215.66 -244.24 211.35 C-244.25 210.54 -244.26 209.73 -244.27 208.9 C-244.79 154.6 -229.4 105.1 -193 64 C-192.2 63.08 -191.41 62.16 -190.59 61.22 C-186.03 56.03 -181.29 51.43 -176 47 C-175.08 46.18 -174.16 45.36 -173.21 44.51 C-164.73 37.02 -155.66 30.87 -146 25 C-145.35 24.6 -144.7 24.2 -144.04 23.79 C-126.07 12.8 -106.47 5.69 -86 1 C-84.69 0.68 -84.69 0.68 -83.36 0.36 C-57.39 -5.71 -26.05 -5.91 0 0 Z M-131 102 C-131.51 102.47 -132.02 102.94 -132.55 103.42 C-157.27 126.25 -172.29 158.64 -174.12 192.28 C-175.47 231.6 -161.61 265.32 -135 294 C-134.47 294.59 -133.94 295.19 -133.4 295.8 C-111.5 319.32 -77.4 331.73 -45.94 333.23 C-9.15 334.33 24 320.37 51 296 C51.74 295.33 52.48 294.67 53.24 293.98 C76.41 271.92 90.89 238.9 92 207 C92.05 205.92 92.1 204.85 92.16 203.74 C93.11 167.12 78.87 134.1 54.52 107.26 C30.36 82 -3.33 67.6 -38.16 66.71 C-72.64 66.35 -105.65 78.56 -131 102 Z " fill="#FFFFFF" transform="translate(244,3)"/>
<path d="M0 0 C16.88 8.54 27.96 32.73 33.66 49.87 C37.77 62.83 43.41 82.58 37.63 95.8 C33.95 101.94 30.07 106.49 22.96 108.35 C15.75 109.34 9.23 108.53 3.22 104.28 C-2.89 98.63 -4.49 92.48 -4.81 84.44 C-6.09 66.03 -12.39 50.76 -24.5 36.69 C-29.45 30.87 -31.85 25.08 -31.34 17.29 C-30.2 10.86 -27.7 5.93 -22.3 2.14 C-14.91 -2 -8.03 -2.85 0 0 Z " fill="#FFFFFF" transform="translate(274.5,123.3125)"/>
<path d="M0 0 C5.49 4.51 8.31 9.24 9.25 16.24 C9.58 22.53 7.57 27.74 4.23 32.99 C-0.62 37.84 -5.85 40.07 -12.64 40.43 C-16.64 40.38 -20.29 39.6 -24.18 38.74 C-27.49 38.16 -30.73 37.97 -34.08 37.8 C-42.02 37.3 -49.27 36.15 -55.02 30.24 C-59.26 24.08 -60.74 18.69 -60.02 11.24 C-58.67 4.75 -55.36 0.11 -50.02 -3.76 C-37.48 -10.85 -12.05 -7.03 0 0 Z " fill="#FFFFFF" transform="translate(229.01953125,96.76171875)"/>
</svg>
