<?xml version="1.0" encoding="UTF-8"?>
<!-- Generator: visioncortex VTracer 0.6.3 -->
<svg version="1.1" xmlns="http://www.w3.org/2000/svg" width="512" height="512">
<path d="M0 0 C1.45 0 1.45 0 2.93 0.01 C17.26 0.05 31.21 0.56 45.31 3.31 C46.66 3.55 46.66 3.55 48.03 3.8 C95.58 12.4 138.58 34.88 174.1 67.32 C175.86 68.91 177.64 70.41 179.5 71.88 C182.43 74.41 184.85 77.09 187.35 80.04 C189.5 82.53 191.75 84.91 194 87.31 C224.16 120.53 243.61 162.99 252.62 206.69 C252.77 207.4 252.92 208.11 253.07 208.84 C256.06 224.48 256.69 240.12 256.62 256 C256.62 257.45 256.62 257.45 256.62 258.93 C256.57 273.26 256.07 287.21 253.31 301.31 C253.15 302.21 252.99 303.11 252.82 304.03 C244.22 351.58 221.74 394.58 189.3 430.1 C187.72 431.86 186.22 433.64 184.75 435.5 C182.21 438.43 179.53 440.85 176.59 443.35 C174.1 445.5 171.71 447.75 169.31 450 C136.09 480.16 93.63 499.61 49.94 508.62 C49.23 508.77 48.52 508.92 47.78 509.07 C32.14 512.06 16.51 512.69 0.62 512.62 C-0.34 512.62 -1.31 512.62 -2.31 512.62 C-16.63 512.57 -30.61 512.17 -44.69 509.31 C-46.2 509.01 -46.2 509.01 -47.75 508.71 C-73.16 503.6 -100.46 496.15 -122.43 481.92 C-127.98 479.18 -133.3 481.35 -138.96 483.2 C-140.76 483.78 -140.76 483.78 -142.6 484.37 C-143.9 484.8 -145.2 485.23 -146.5 485.65 C-147.87 486.1 -149.25 486.54 -150.62 486.99 C-154.25 488.17 -157.87 489.35 -161.49 490.53 C-165.06 491.7 -168.63 492.86 -172.2 494.02 C-173.61 494.48 -175.03 494.94 -176.44 495.4 C-179.28 496.32 -182.11 497.24 -184.94 498.15 C-191.36 500.23 -197.76 502.33 -204.14 504.51 C-206.93 505.46 -209.72 506.4 -212.51 507.33 C-214.43 507.98 -216.34 508.65 -218.25 509.32 C-227.1 512.27 -236.11 514.2 -245.19 511.12 C-250.06 507.59 -253.73 504.08 -255.69 498.31 C-256.45 489.4 -255.18 481.93 -252.24 473.56 C-251.88 472.47 -251.52 471.39 -251.14 470.27 C-250.37 467.96 -249.58 465.64 -248.79 463.33 C-247.55 459.7 -246.33 456.07 -245.11 452.43 C-243.46 447.47 -241.79 442.51 -240.12 437.56 C-236.82 427.76 -233.59 417.94 -230.42 408.11 C-229.52 405.3 -228.59 402.5 -227.67 399.7 C-227.12 397.99 -226.57 396.29 -226.02 394.59 C-225.77 393.83 -225.51 393.08 -225.25 392.3 C-223.08 385.44 -224 381.19 -227.26 374.91 C-227.61 374.26 -227.96 373.61 -228.31 372.94 C-229.05 371.5 -229.78 370.07 -230.51 368.63 C-230.88 367.91 -231.24 367.18 -231.62 366.44 C-241.93 345.87 -248.57 323.9 -252.69 301.31 C-252.85 300.48 -253.01 299.64 -253.18 298.78 C-258.48 271.06 -258.09 238.97 -252.69 211.31 C-252.45 209.97 -252.45 209.97 -252.2 208.59 C-243.6 161.05 -221.12 118.04 -188.68 82.52 C-187.09 80.76 -185.59 78.98 -184.12 77.12 C-181.59 74.2 -178.91 71.78 -175.96 69.28 C-173.47 67.13 -171.09 64.88 -168.69 62.62 C-135.47 32.46 -93.01 13.02 -49.31 4 C-48.6 3.85 -47.89 3.71 -47.16 3.55 C-31.52 0.57 -15.88 -0.06 0 0 Z M-126.69 82.31 C-127.85 83.18 -129.01 84.05 -130.18 84.91 C-135.47 88.87 -140.54 92.87 -145.09 97.68 C-146.83 99.45 -148.66 101.03 -150.56 102.62 C-187.81 135.04 -210.61 187.76 -214.69 236.31 C-215.03 242.66 -215.03 249.02 -215 255.38 C-215 256.23 -215 257.09 -214.99 257.97 C-214.85 297.27 -203.99 333.23 -184.92 367.49 C-184.37 368.51 -183.82 369.52 -183.25 370.56 C-182.51 371.87 -182.51 371.87 -181.75 373.2 C-179.21 380.62 -180.73 387.94 -183.18 395.17 C-183.44 395.98 -183.7 396.79 -183.97 397.63 C-184.82 400.26 -185.69 402.88 -186.56 405.5 C-187.15 407.32 -187.75 409.14 -188.33 410.96 C-189.82 415.54 -191.32 420.12 -192.83 424.69 C-194.85 430.86 -196.85 437.05 -198.85 443.23 C-199.49 445.22 -200.14 447.21 -200.79 449.19 C-201.18 450.38 -201.56 451.56 -201.96 452.78 C-202.29 453.8 -202.63 454.83 -202.98 455.89 C-203.78 458.21 -203.78 458.21 -203.69 460.31 C-195.31 458.13 -187.08 455.57 -178.85 452.9 C-177.55 452.48 -176.25 452.06 -174.96 451.64 C-171.57 450.55 -168.19 449.45 -164.82 448.36 C-159.38 446.6 -153.95 444.84 -148.52 443.08 C-146.63 442.47 -144.74 441.86 -142.85 441.25 C-141.71 440.88 -140.56 440.5 -139.38 440.12 C-137.87 439.63 -137.87 439.63 -136.33 439.13 C-127.42 436.37 -120.99 436.21 -112.5 440.62 C-110.37 441.75 -108.25 442.89 -106.12 444.03 C-93.43 450.72 -80.43 457.11 -66.69 461.31 C-65.91 461.55 -65.14 461.79 -64.34 462.04 C-52.58 465.66 -40.89 468.64 -28.69 470.31 C-28.01 470.41 -27.33 470.5 -26.63 470.6 C27.08 477.01 84.29 463.71 127.31 430.31 C128.47 429.44 129.64 428.58 130.8 427.71 C136.09 423.76 141.16 419.76 145.71 414.95 C147.45 413.17 149.29 411.6 151.19 410 C188.47 377.56 211.17 324.89 215.31 276.31 C215.68 269.88 215.7 263.44 215.69 257 C215.69 256.12 215.69 255.25 215.68 254.35 C215.54 209.72 201.89 164.84 174.31 129.31 C173.44 128.15 172.58 126.99 171.71 125.82 C167.76 120.53 163.76 115.46 158.95 110.91 C157.17 109.17 155.6 107.34 154 105.44 C121.56 68.16 68.89 45.45 20.31 41.31 C13.88 40.94 7.44 40.92 1 40.94 C0.12 40.94 -0.75 40.94 -1.65 40.94 C-46.28 41.09 -91.16 54.73 -126.69 82.31 Z " fill="#000000" transform="translate(255.6875,-0.3125)"/>
<path d="M0 0 C6.21 3.77 11.13 9.38 13.44 16.31 C14.06 24.35 14.42 31.64 9.44 38.31 C4.85 43.62 -0.46 47.99 -7.64 48.55 C-16.85 48.74 -22.34 47.96 -29.31 41.94 C-35.63 34.57 -36.92 29.38 -36.84 19.84 C-36.27 12.6 -33.02 7.99 -27.56 3.31 C-19.67 -2.37 -9.18 -4.36 0 0 Z " fill="#000000" transform="translate(367.5625,232.6875)"/>
<path d="M0 0 C6.21 3.77 11.13 9.38 13.44 16.31 C14.06 24.35 14.42 31.64 9.44 38.31 C4.85 43.62 -0.46 47.99 -7.64 48.55 C-16.85 48.74 -22.34 47.96 -29.31 41.94 C-35.63 34.57 -36.92 29.38 -36.84 19.84 C-36.27 12.6 -33.02 7.99 -27.56 3.31 C-19.67 -2.37 -9.18 -4.36 0 0 Z " fill="#000000" transform="translate(267.5625,232.6875)"/>
<path d="M0 0 C6.21 3.77 11.13 9.38 13.44 16.31 C14.06 24.35 14.42 31.64 9.44 38.31 C4.85 43.62 -0.46 47.99 -7.64 48.55 C-16.85 48.74 -22.34 47.96 -29.31 41.94 C-35.63 34.57 -36.92 29.38 -36.84 19.84 C-36.27 12.6 -33.02 7.99 -27.56 3.31 C-19.67 -2.37 -9.18 -4.36 0 0 Z " fill="#000000" transform="translate(167.5625,232.6875)"/>
</svg>
