<?xml version="1.0" standalone="no"?>
<!DOCTYPE svg PUBLIC "-//W3C//DTD SVG 20010904//EN"
 "http://www.w3.org/TR/2001/REC-SVG-20010904/DTD/svg10.dtd">
<svg version="1.0" xmlns="http://www.w3.org/2000/svg"
 width="512.000000pt" height="512.000000pt" viewBox="0 0 512.000000 512.000000"
 preserveAspectRatio="xMidYMid meet">

<g transform="translate(0.000000,512.000000) scale(0.100000,-0.100000)"
fill="#000000" stroke="none">
<path d="M1000 4714 c-114 -24 -224 -86 -316 -178 -87 -87 -130 -155 -163
-254 -24 -69 -221 -1246 -221 -1316 0 -66 35 -189 77 -269 23 -44 66 -101 110
-147 l73 -75 0 -738 c0 -827 0 -827 70 -972 89 -184 259 -318 455 -360 104
-22 2845 -22 2950 0 226 47 415 220 493 450 l27 80 3 772 3 771 62 64 c75 78
130 168 161 268 47 149 48 143 -64 808 -55 332 -110 632 -121 665 -33 98 -77
166 -163 253 -93 93 -202 154 -321 179 -102 21 -3015 21 -3115 -1z m3151 -281
c40 -20 85 -53 113 -83 90 -96 94 -111 203 -763 111 -655 110 -648 54 -762
-61 -124 -197 -214 -336 -223 -124 -8 -233 36 -320 129 -60 64 -92 135 -106
234 -6 44 -17 92 -25 107 -34 66 -140 77 -196 21 -25 -25 -31 -42 -39 -106
-12 -96 -30 -149 -76 -215 -77 -113 -220 -180 -361 -169 -197 15 -348 165
-371 369 -10 88 -21 112 -64 138 -41 25 -93 25 -134 0 -43 -26 -54 -50 -64
-138 -23 -204 -174 -354 -371 -369 -141 -11 -284 56 -361 169 -46 66 -64 119
-76 215 -8 64 -14 81 -39 106 -41 40 -107 48 -155 18 -41 -25 -53 -52 -66
-148 -34 -259 -284 -423 -522 -343 -144 49 -237 146 -273 285 l-16 59 101 606
c85 512 105 615 129 667 48 105 138 186 243 219 34 10 323 12 1552 11 l1510
-2 66 -32z m-2435 -2010 c270 -140 581 -90 788 127 l56 59 57 -60 c255 -267
675 -274 938 -14 l72 71 65 -65 c126 -127 278 -192 453 -194 55 -1 112 2 128
6 l28 8 -3 -708 -3 -708 -32 -66 c-39 -79 -120 -160 -196 -195 -82 -37 -182
-45 -527 -42 l-315 3 -5 495 c-5 536 -4 520 -61 554 -24 14 -90 16 -599 16
-509 0 -575 -2 -599 -16 -57 -34 -56 -18 -61 -554 l-5 -495 -315 -3 c-345 -3
-445 5 -527 42 -76 35 -157 116 -196 195 l-32 66 -3 708 -3 708 28 -8 c16 -4
73 -7 128 -6 175 2 327 67 453 194 l65 65 72 -71 c48 -48 97 -84 151 -112z
m1252 -1370 l-3 -408 -405 0 -405 0 -3 408 -2 407 410 0 410 0 -2 -407z"/>
</g>
</svg>
