<?xml version="1.0" encoding="UTF-8"?>
<!-- Generator: visioncortex VTracer 0.6.3 -->
<svg version="1.1" xmlns="http://www.w3.org/2000/svg" width="512" height="512">
<path d="M0 0 C28.05 0 56.1 0 85 0 C85.66 6.93 86.32 13.86 87 21 C92.33 48.04 104.11 69.91 123 90 C123.54 90.6 124.08 91.2 124.63 91.82 C148.03 116.99 181.43 124.09 214 128 C214 155.72 214 183.44 214 212 C184.36 212 156.26 206.7 129 195 C128.19 194.66 127.39 194.31 126.56 193.96 C112.1 187.69 98.29 179.9 86 170 C86 171.5 86 171.5 85.99 173.02 C85.93 197.35 85.86 221.69 85.76 246.02 C85.72 257.79 85.68 269.56 85.65 281.32 C85.63 291.59 85.6 301.85 85.55 312.12 C85.53 317.55 85.51 322.97 85.5 328.4 C85.5 333.53 85.48 338.65 85.45 343.78 C85.44 345.64 85.43 347.51 85.43 349.37 C85.45 365.67 84.04 381.95 79.31 397.62 C79.06 398.48 78.81 399.34 78.54 400.23 C71.18 424.26 58.22 444.83 41 463 C40.11 463.96 39.22 464.91 38.3 465.9 C26.6 478.19 13.01 487.22 -2 495 C-2.61 495.32 -3.22 495.64 -3.84 495.97 C-41.08 515.31 -86.39 516.9 -126.02 504.66 C-133.27 502.31 -140.17 499.36 -147 496 C-147.63 495.69 -148.26 495.39 -148.91 495.07 C-163.7 487.8 -176.18 478.41 -188 467 C-188.91 466.15 -189.83 465.3 -190.77 464.42 C-218.71 437.72 -234.95 398.88 -236.29 360.43 C-237.11 318.94 -224.6 278.8 -195.95 248.11 C-194.36 246.39 -192.89 244.65 -191.44 242.81 C-188.26 239.14 -184.73 236.1 -181 233 C-180.26 232.37 -179.52 231.74 -178.75 231.09 C-167.22 221.55 -154.57 214.23 -141 208 C-140.09 207.58 -140.09 207.58 -139.15 207.15 C-131.59 203.75 -123.96 201.29 -115.94 199.25 C-114.77 198.95 -114.77 198.95 -113.58 198.65 C-101.52 195.74 -89.65 194.69 -77.28 194.79 C-75.11 194.81 -72.93 194.81 -70.75 194.81 C-64.04 194.84 -57.69 195.16 -51 196 C-51 224.38 -51 252.76 -51 282 C-57.93 281.01 -64.86 280.02 -72 279 C-91.71 279.15 -110.11 284.68 -125 298 C-125.75 298.65 -126.5 299.31 -127.27 299.98 C-140.16 312.01 -148.6 329.69 -149.34 347.38 C-149.71 371.07 -143.6 389.75 -126.92 407.18 C-110.95 422.43 -91.2 427.7 -69.74 427.3 C-52.05 426.6 -34.6 418.35 -22 406 C-6.14 388.7 -0.69 369.01 -0.72 345.97 C-0.72 344.47 -0.71 342.98 -0.7 341.48 C-0.69 337.39 -0.68 333.29 -0.68 329.2 C-0.68 324.78 -0.66 320.36 -0.65 315.94 C-0.63 308.29 -0.61 300.63 -0.6 292.98 C-0.59 281.92 -0.56 270.85 -0.54 259.79 C-0.49 241.84 -0.45 223.89 -0.42 205.93 C-0.39 188.5 -0.36 171.07 -0.32 153.63 C-0.31 152.56 -0.31 151.48 -0.31 150.37 C-0.3 144.98 -0.29 139.58 -0.27 134.19 C-0.17 89.46 -0.08 44.73 0 0 Z " fill="#000000" transform="translate(267,0)"/>
</svg>
