<?xml version="1.0" encoding="UTF-8"?>
<!-- Generator: visioncortex VTracer 0.6.3 -->
<svg version="1.1" xmlns="http://www.w3.org/2000/svg" width="512" height="512">
<path d="M0 0 C0.81 -0 1.62 -0.01 2.45 -0.01 C5.16 -0.02 7.87 -0.01 10.59 -0.01 C12.55 -0.01 14.51 -0.01 16.48 -0.02 C21.87 -0.03 27.27 -0.03 32.66 -0.02 C38.48 -0.02 44.3 -0.03 50.12 -0.04 C61.52 -0.05 72.92 -0.05 84.32 -0.05 C93.59 -0.05 102.85 -0.05 112.12 -0.05 C114.1 -0.05 114.1 -0.05 116.11 -0.05 C118.12 -0.05 120.12 -0.06 122.13 -0.06 C140.78 -0.07 159.43 -0.07 178.08 -0.07 C178.78 -0.07 179.48 -0.06 180.21 -0.06 C183.77 -0.06 187.33 -0.06 190.89 -0.06 C191.6 -0.06 192.31 -0.06 193.04 -0.06 C194.47 -0.06 195.9 -0.06 197.33 -0.06 C219.6 -0.06 241.87 -0.06 264.14 -0.08 C289.16 -0.1 314.18 -0.11 339.2 -0.11 C352.45 -0.11 365.69 -0.11 378.94 -0.12 C390.22 -0.14 401.5 -0.14 412.77 -0.13 C418.53 -0.12 424.28 -0.12 430.04 -0.13 C435.3 -0.14 440.57 -0.14 445.84 -0.12 C447.74 -0.12 449.65 -0.12 451.56 -0.13 C454.15 -0.14 456.74 -0.13 459.33 -0.12 C460.07 -0.13 460.81 -0.13 461.57 -0.14 C468.18 -0.07 474.47 1.59 479.54 6.07 C480.08 6.53 480.63 6.99 481.18 7.46 C486.06 13.12 486.31 18.66 486.14 25.84 C485.38 32.14 482.36 35.94 477.79 40.13 C472.25 43.97 467.15 44.55 460.55 44.51 C459.33 44.51 459.33 44.51 458.09 44.52 C455.36 44.53 452.64 44.52 449.91 44.52 C447.94 44.52 445.97 44.52 444 44.53 C438.58 44.54 433.16 44.53 427.74 44.53 C421.89 44.53 416.05 44.54 410.2 44.54 C398.75 44.56 387.3 44.56 375.85 44.56 C366.54 44.56 357.23 44.56 347.93 44.56 C346.59 44.56 345.25 44.56 343.92 44.56 C341.9 44.56 339.89 44.56 337.87 44.57 C319.14 44.57 300.41 44.58 281.68 44.57 C280.62 44.57 280.62 44.57 279.54 44.57 C275.96 44.57 272.38 44.57 268.8 44.57 C268.09 44.57 267.38 44.57 266.65 44.57 C265.21 44.57 263.77 44.57 262.33 44.57 C239.96 44.56 217.59 44.57 195.22 44.59 C170.09 44.61 144.96 44.62 119.83 44.62 C117.15 44.62 114.47 44.62 111.8 44.62 C110.48 44.62 109.16 44.62 107.8 44.62 C98.5 44.62 89.21 44.62 79.91 44.63 C68.59 44.64 57.26 44.65 45.93 44.63 C40.15 44.63 34.37 44.63 28.59 44.64 C23.29 44.65 18 44.65 12.71 44.63 C10.8 44.63 8.88 44.63 6.97 44.64 C4.36 44.65 1.76 44.64 -0.84 44.63 C-1.58 44.64 -2.33 44.64 -3.1 44.65 C-9.17 44.59 -14.76 43.38 -19.52 39.35 C-20.05 38.68 -20.59 38.01 -21.15 37.32 C-21.98 36.31 -21.98 36.31 -22.83 35.29 C-27.28 29.02 -27.09 22.79 -26.27 15.25 C-24.22 9.56 -20.2 5.6 -15.27 2.25 C-10.13 0.45 -5.4 -0.03 0 0 Z " fill="#000000" transform="translate(26.27285671234131,396.7455244064331)"/>
<path d="M0 0 C0.81 -0 1.62 -0.01 2.46 -0.01 C5.18 -0.02 7.91 -0.02 10.63 -0.01 C12.6 -0.01 14.57 -0.02 16.54 -0.02 C21.96 -0.04 27.38 -0.04 32.8 -0.03 C38.64 -0.03 44.48 -0.04 50.33 -0.05 C61.77 -0.07 73.22 -0.08 84.67 -0.08 C93.98 -0.08 103.28 -0.08 112.58 -0.09 C115.26 -0.09 117.94 -0.09 120.62 -0.09 C121.62 -0.09 121.62 -0.09 122.64 -0.09 C141.36 -0.11 160.09 -0.12 178.82 -0.11 C179.52 -0.11 180.23 -0.11 180.96 -0.11 C184.54 -0.11 188.12 -0.11 191.69 -0.11 C192.41 -0.11 193.12 -0.11 193.85 -0.11 C195.29 -0.11 196.72 -0.11 198.16 -0.11 C220.52 -0.11 242.89 -0.13 265.25 -0.15 C290.37 -0.19 315.5 -0.2 340.62 -0.2 C353.92 -0.2 367.23 -0.21 380.53 -0.23 C391.86 -0.24 403.18 -0.25 414.51 -0.24 C420.29 -0.23 426.06 -0.23 431.84 -0.25 C437.13 -0.26 442.43 -0.26 447.72 -0.24 C449.63 -0.24 451.54 -0.24 453.46 -0.25 C474.01 -0.37 474.01 -0.37 480.67 6.04 C486.44 12.3 487.33 17.28 487.2 25.77 C486.51 32.12 483.48 35.92 478.88 40.13 C473.35 43.97 468.24 44.55 461.64 44.51 C460.43 44.52 460.43 44.52 459.19 44.53 C456.46 44.53 453.74 44.53 451.01 44.52 C449.04 44.53 447.07 44.53 445.1 44.54 C439.68 44.55 434.26 44.55 428.85 44.55 C423 44.55 417.16 44.56 411.32 44.57 C399.87 44.58 388.42 44.59 376.97 44.59 C367.67 44.59 358.36 44.6 349.06 44.6 C346.38 44.6 343.7 44.61 341.03 44.61 C340.03 44.61 340.03 44.61 339.01 44.61 C320.28 44.62 301.55 44.63 282.82 44.63 C282.12 44.63 281.41 44.63 280.69 44.63 C277.11 44.63 273.53 44.63 269.95 44.63 C269.24 44.63 268.53 44.63 267.8 44.63 C266.36 44.63 264.92 44.63 263.48 44.63 C241.12 44.63 218.76 44.64 196.39 44.67 C171.27 44.7 146.15 44.72 121.02 44.71 C107.72 44.71 94.42 44.72 81.11 44.74 C69.79 44.76 58.46 44.76 47.14 44.75 C41.36 44.74 35.58 44.74 29.8 44.76 C24.51 44.78 19.22 44.77 13.93 44.76 C12.01 44.75 10.1 44.76 8.19 44.77 C-12.36 44.88 -12.36 44.88 -19.03 38.48 C-24.8 32.21 -25.69 27.23 -25.56 18.75 C-24.87 12.39 -21.84 8.59 -17.24 4.38 C-11.71 0.54 -6.6 -0.04 0 0 Z " fill="#000000" transform="translate(25.178250312805176,69.74273109436035)"/>
<path d="M0 0 C1.22 -0 1.22 -0 2.47 -0.01 C5.22 -0.01 7.98 -0.01 10.73 -0.01 C12.72 -0.02 14.7 -0.02 16.69 -0.02 C22.16 -0.03 27.63 -0.04 33.11 -0.04 C39 -0.04 44.9 -0.05 50.79 -0.06 C64.37 -0.08 77.94 -0.09 91.52 -0.1 C98.22 -0.1 104.93 -0.11 111.63 -0.11 C134.59 -0.13 157.54 -0.15 180.49 -0.16 C181.93 -0.16 183.37 -0.16 184.82 -0.16 C185.53 -0.16 186.25 -0.16 186.98 -0.16 C190.6 -0.16 194.22 -0.16 197.85 -0.16 C198.56 -0.16 199.28 -0.16 200.02 -0.16 C223.32 -0.17 246.63 -0.19 269.93 -0.23 C294.56 -0.26 319.19 -0.28 343.82 -0.28 C346.52 -0.28 349.23 -0.28 351.93 -0.28 C352.6 -0.28 353.26 -0.28 353.95 -0.28 C364 -0.29 374.05 -0.3 384.11 -0.32 C395.54 -0.34 406.98 -0.35 418.41 -0.34 C424.25 -0.33 430.08 -0.34 435.92 -0.36 C441.26 -0.37 446.6 -0.37 451.94 -0.36 C453.87 -0.35 455.81 -0.36 457.74 -0.37 C460.37 -0.39 462.99 -0.38 465.62 -0.36 C466.37 -0.37 467.12 -0.38 467.9 -0.39 C474.25 -0.31 479.62 1.66 484.18 6.17 C484.64 6.84 485.09 7.51 485.56 8.2 C486.04 8.87 486.51 9.54 487 10.23 C490.44 16.04 490.13 24.16 488.51 30.56 C486.15 35.92 482.1 39.18 477.13 42.13 C473.45 43.36 470.07 43.28 466.25 43.27 C465.44 43.27 464.62 43.27 463.78 43.28 C461.03 43.28 458.27 43.28 455.52 43.28 C453.54 43.28 451.55 43.29 449.56 43.29 C444.09 43.3 438.62 43.31 433.14 43.31 C427.25 43.31 421.35 43.32 415.46 43.33 C401.88 43.35 388.31 43.36 374.74 43.37 C368.03 43.37 361.32 43.38 354.62 43.38 C331.66 43.4 308.71 43.42 285.76 43.42 C284.32 43.42 282.88 43.42 281.44 43.43 C280.72 43.43 280.01 43.43 279.27 43.43 C275.65 43.43 272.03 43.43 268.41 43.43 C267.69 43.43 266.97 43.43 266.23 43.43 C242.93 43.44 219.62 43.46 196.32 43.49 C171.69 43.53 147.06 43.55 122.43 43.55 C119.73 43.55 117.02 43.55 114.32 43.55 C113.32 43.55 113.32 43.55 112.3 43.55 C102.25 43.56 92.2 43.57 82.14 43.59 C70.71 43.61 59.28 43.62 47.84 43.61 C42.01 43.6 36.17 43.61 30.33 43.62 C24.99 43.64 19.65 43.64 14.31 43.63 C12.38 43.62 10.44 43.63 8.51 43.64 C5.88 43.65 3.26 43.64 0.63 43.63 C-0.5 43.64 -0.5 43.64 -1.65 43.66 C-8 43.58 -13.37 41.61 -17.93 37.1 C-18.62 36.1 -18.62 36.1 -19.31 35.07 C-20.02 34.06 -20.02 34.06 -20.75 33.04 C-24.19 27.23 -23.88 19.11 -22.26 12.71 C-19.9 7.35 -15.85 4.09 -10.87 1.13 C-7.2 -0.09 -3.82 -0.01 0 0 Z " fill="#000000" transform="translate(22.874369621276855,233.86577892303467)"/>
</svg>
