<?xml version="1.0" encoding="UTF-8"?>
<!-- Generator: visioncortex VTracer 0.6.3 -->
<svg version="1.1" xmlns="http://www.w3.org/2000/svg" width="512" height="512">
<path d="M0 0 C0.71 -0 1.43 -0 2.16 -0.01 C4.56 -0.01 6.96 -0.01 9.37 -0.01 C11.1 -0.02 12.84 -0.02 14.57 -0.02 C19.35 -0.03 24.12 -0.04 28.9 -0.04 C34.05 -0.04 39.19 -0.05 44.34 -0.06 C56.78 -0.08 69.21 -0.09 81.65 -0.1 C87.51 -0.11 93.36 -0.11 99.22 -0.12 C118.69 -0.13 138.16 -0.15 157.63 -0.16 C162.69 -0.16 167.74 -0.16 172.79 -0.16 C174.68 -0.16 174.68 -0.16 176.6 -0.16 C196.94 -0.17 217.28 -0.2 237.62 -0.23 C258.51 -0.26 279.39 -0.28 300.28 -0.28 C312 -0.28 323.73 -0.29 335.46 -0.32 C345.44 -0.34 355.43 -0.35 365.42 -0.34 C370.51 -0.33 375.6 -0.34 380.7 -0.36 C385.36 -0.37 390.03 -0.37 394.7 -0.36 C396.38 -0.35 398.07 -0.36 399.75 -0.37 C417.94 -0.49 432.07 4.08 445.51 16.65 C454.78 26.56 459.95 38.8 459.96 52.3 C459.97 53.02 459.97 53.73 459.97 54.47 C459.98 56.87 459.98 59.27 459.98 61.67 C459.98 63.4 459.98 65.14 459.99 66.88 C460 71.65 460 76.43 460.01 81.2 C460.01 86.35 460.02 91.5 460.03 96.65 C460.05 109.08 460.06 121.52 460.07 133.95 C460.07 139.81 460.08 145.67 460.08 151.52 C460.1 170.99 460.11 190.47 460.12 209.94 C460.12 214.99 460.12 220.04 460.13 225.1 C460.13 226.35 460.13 227.61 460.13 228.9 C460.14 249.24 460.16 269.58 460.19 289.92 C460.23 310.81 460.24 331.7 460.25 352.58 C460.25 364.31 460.26 376.03 460.28 387.76 C460.31 397.75 460.31 407.73 460.3 417.72 C460.3 422.81 460.3 427.91 460.32 433 C460.34 437.67 460.34 442.34 460.32 447 C460.32 448.69 460.32 450.37 460.34 452.05 C460.46 470.24 455.89 484.37 443.31 497.81 C433.41 507.08 421.16 512.25 407.66 512.27 C406.59 512.27 406.59 512.27 405.5 512.28 C403.1 512.28 400.7 512.28 398.3 512.28 C396.56 512.28 394.82 512.29 393.09 512.29 C388.31 512.3 383.54 512.31 378.76 512.31 C373.62 512.31 368.47 512.32 363.32 512.33 C350.88 512.35 338.45 512.36 326.01 512.37 C320.16 512.37 314.3 512.38 308.44 512.38 C288.97 512.4 269.5 512.42 250.03 512.42 C244.97 512.43 239.92 512.43 234.87 512.43 C233.61 512.43 232.36 512.43 231.06 512.43 C210.72 512.44 190.38 512.46 170.04 512.5 C149.15 512.53 128.27 512.55 107.38 512.55 C95.66 512.55 83.93 512.56 72.2 512.59 C62.22 512.61 52.23 512.62 42.24 512.61 C37.15 512.6 32.06 512.61 26.97 512.62 C22.3 512.64 17.63 512.64 12.96 512.63 C11.28 512.62 9.59 512.63 7.91 512.64 C-10.28 512.76 -24.41 508.19 -37.85 495.62 C-47.11 485.71 -52.28 473.46 -52.3 459.96 C-52.31 459.25 -52.31 458.54 -52.31 457.8 C-52.32 455.4 -52.32 453 -52.32 450.6 C-52.32 448.86 -52.32 447.13 -52.33 445.39 C-52.34 440.62 -52.34 435.84 -52.34 431.07 C-52.35 425.92 -52.36 420.77 -52.37 415.62 C-52.39 403.19 -52.4 390.75 -52.41 378.32 C-52.41 372.46 -52.41 366.6 -52.42 360.75 C-52.44 341.27 -52.45 321.8 -52.46 302.33 C-52.46 297.28 -52.46 292.23 -52.46 287.17 C-52.47 285.92 -52.47 284.66 -52.47 283.37 C-52.47 263.03 -52.5 242.69 -52.53 222.34 C-52.57 201.46 -52.58 180.57 -52.59 159.69 C-52.59 147.96 -52.6 136.23 -52.62 124.51 C-52.64 114.52 -52.65 104.54 -52.64 94.55 C-52.64 89.46 -52.64 84.36 -52.66 79.27 C-52.68 74.6 -52.68 69.93 -52.66 65.26 C-52.66 63.58 -52.66 61.9 -52.67 60.21 C-52.8 42.03 -48.23 27.9 -35.65 14.46 C-25.75 5.19 -13.5 0.02 0 0 Z M30.83 78.13 C31.63 79.58 32.42 81.03 33.22 82.48 C33.67 83.28 34.11 84.09 34.57 84.92 C35.96 87.36 37.5 89.59 39.21 91.82 C43.34 97.39 47.25 103.09 51.14 108.82 C52.12 110.26 52.12 110.26 53.12 111.73 C54.42 113.64 55.72 115.55 57.01 117.46 C59.52 121.15 62.05 124.83 64.58 128.51 C65.02 129.15 65.46 129.79 65.91 130.44 C66.78 131.71 67.66 132.98 68.53 134.24 C75.37 144.17 82.19 154.11 88.99 164.06 C93.81 171.11 98.65 178.15 103.49 185.18 C105.77 188.5 108.05 191.82 110.33 195.13 C111.25 196.47 112.16 197.8 113.08 199.13 C140.58 239.13 140.58 239.13 141.96 241.14 C142.87 242.46 143.78 243.79 144.69 245.11 C147.06 248.56 149.43 252 151.79 255.45 C152.28 256.16 152.77 256.87 153.27 257.6 C154.19 258.95 155.12 260.3 156.04 261.64 C156.46 262.26 156.89 262.88 157.32 263.51 C157.73 264.11 158.14 264.71 158.56 265.33 C159.44 266.58 160.36 267.81 161.3 269.01 C164.88 273.66 164.88 273.66 164.61 276.15 C163.31 279.46 160.85 281.89 158.52 284.51 C157.42 285.77 156.32 287.02 155.22 288.28 C154.65 288.92 154.09 289.56 153.51 290.22 C150.92 293.17 148.38 296.15 145.83 299.13 C144.83 300.3 143.83 301.47 142.83 302.64 C140.84 304.96 138.85 307.28 136.87 309.6 C131.16 316.26 125.44 322.9 119.69 329.53 C114.04 336.04 108.43 342.58 102.83 349.13 C96.14 356.95 89.43 364.75 82.69 372.53 C77.04 379.04 71.43 385.58 65.83 392.13 C63.85 394.45 61.87 396.76 59.89 399.07 C59.16 399.93 59.16 399.93 58.41 400.81 C55.24 404.5 52.06 408.18 48.87 411.85 C44.21 417.2 39.58 422.57 35.02 428.01 C33.8 429.46 33.8 429.46 32.56 430.94 C30.73 432.8 30.73 432.8 30.83 434.13 C34.79 434.38 38.76 434.56 42.73 434.68 C44.73 434.76 46.73 434.88 48.73 435.01 C56.15 435.26 56.15 435.26 62.62 432.05 C64.92 429.52 66.9 426.95 68.83 424.13 C69.65 423.15 70.48 422.16 71.33 421.14 C71.97 420.33 72.61 419.53 73.27 418.7 C77.13 413.92 81.2 409.4 85.36 404.89 C88.58 401.3 91.59 397.57 94.62 393.82 C97.5 390.33 100.54 387 103.58 383.66 C105.89 381.06 108.09 378.4 110.27 375.7 C114.13 370.92 118.2 366.4 122.36 361.89 C125.58 358.3 128.59 354.57 131.62 350.82 C134.5 347.33 137.54 344 140.58 340.66 C142.89 338.06 145.09 335.4 147.27 332.7 C150.34 328.89 153.52 325.23 156.83 321.63 C160.95 317.16 164.82 312.53 168.65 307.79 C171.92 303.8 175.36 299.96 178.83 296.13 C182.31 299.34 184.84 302.94 187.39 306.88 C188.28 308.24 189.17 309.59 190.06 310.95 C190.52 311.64 190.98 312.34 191.45 313.05 C193.64 316.36 195.89 319.62 198.14 322.88 C199.07 324.22 199.99 325.56 200.91 326.9 C201.39 327.58 201.86 328.27 202.34 328.98 C205.02 332.86 207.67 336.75 210.33 340.63 C215.7 348.49 221.09 356.34 226.49 364.18 C228.77 367.5 231.05 370.82 233.33 374.13 C234.25 375.47 235.16 376.8 236.08 378.13 C252.58 402.13 252.58 402.13 253.96 404.14 C254.87 405.46 255.78 406.78 256.69 408.11 C259.08 411.59 261.47 415.07 263.86 418.56 C264.36 419.28 264.86 420.01 265.37 420.75 C266.32 422.14 267.27 423.52 268.22 424.91 C268.65 425.53 269.08 426.16 269.52 426.81 C269.89 427.35 270.27 427.9 270.65 428.47 C271.04 429.02 271.43 429.57 271.83 430.13 C272.31 431.16 272.31 431.16 272.8 432.21 C276.17 435.4 280.07 434.66 284.53 434.59 C285.53 434.59 286.53 434.59 287.55 434.59 C290.85 434.59 294.14 434.56 297.44 434.52 C299.72 434.52 302 434.51 304.28 434.51 C310.3 434.49 316.31 434.45 322.32 434.41 C328.45 434.37 334.59 434.35 340.72 434.33 C352.76 434.29 364.79 434.22 376.83 434.13 C374.99 430.33 372.75 426.88 370.39 423.38 C369.73 422.4 369.73 422.4 369.06 421.39 C364.5 414.6 359.86 407.87 355.21 401.14 C352.96 397.87 350.71 394.59 348.46 391.32 C348.01 390.67 347.56 390.02 347.1 389.35 C342.94 383.31 338.81 377.26 334.67 371.21 C329.85 364.16 325.01 357.12 320.17 350.09 C317.89 346.77 315.61 343.45 313.33 340.13 C312.41 338.8 311.5 337.47 310.58 336.13 C294.08 312.13 277.58 288.13 261.08 264.13 C260.63 263.47 260.17 262.81 259.7 262.13 C258.79 260.81 257.88 259.48 256.97 258.16 C254.59 254.7 252.21 251.24 249.83 247.78 C249.34 247.07 248.85 246.35 248.34 245.61 C247.41 244.26 246.47 242.9 245.53 241.54 C244.69 240.31 243.85 239.09 243.02 237.86 C241.87 236.19 240.66 234.55 239.45 232.92 C237.83 230.13 237.83 230.13 237.83 228.04 C239.17 225.49 240.85 223.66 242.83 221.57 C246.13 218.02 249.29 214.41 252.33 210.63 C255.94 206.17 259.72 201.9 263.58 197.66 C265.89 195.06 268.09 192.4 270.27 189.7 C274.13 184.92 278.2 180.4 282.36 175.89 C285.58 172.3 288.59 168.57 291.62 164.82 C294.5 161.33 297.54 158 300.58 154.66 C302.89 152.06 305.09 149.4 307.27 146.7 C311.13 141.92 315.2 137.4 319.36 132.89 C322.58 129.3 325.59 125.57 328.62 121.82 C331.5 118.33 334.54 115 337.58 111.66 C339.89 109.06 342.09 106.4 344.27 103.7 C348.19 98.85 352.31 94.24 356.52 89.65 C362.07 84.49 362.07 84.49 364.83 78.13 C360.87 77.86 356.91 77.66 352.93 77.53 C350.93 77.45 348.93 77.31 346.93 77.17 C339.42 76.9 339.42 76.9 333.06 80.44 C330.78 83.24 328.79 86.1 326.83 89.13 C325.94 90.19 325.03 91.23 324.08 92.23 C319.18 97.47 314.55 102.86 310.05 108.45 C307.17 111.94 304.12 115.26 301.08 118.61 C298.77 121.2 296.57 123.87 294.39 126.57 C290.53 131.34 286.46 135.87 282.3 140.38 C279.08 143.97 276.07 147.7 273.05 151.45 C270.17 154.94 267.12 158.26 264.08 161.61 C261.77 164.2 259.57 166.87 257.39 169.57 C253.53 174.34 249.46 178.87 245.3 183.38 C242.09 186.95 239.09 190.67 236.08 194.42 C233.02 198.12 229.77 201.63 226.48 205.14 C224.62 206.96 224.62 206.96 224.83 209.13 C220.34 205 217.09 200.39 213.71 195.32 C212.55 193.61 211.39 191.9 210.24 190.19 C209.66 189.34 209.09 188.48 208.5 187.61 C206.09 184.04 203.65 180.49 201.21 176.95 C200.31 175.64 199.41 174.33 198.51 173.03 C198.07 172.39 197.63 171.75 197.17 171.09 C194.89 167.77 192.61 164.45 190.33 161.13 C189.41 159.8 188.5 158.47 187.58 157.13 C160.08 117.13 160.08 117.13 158.7 115.13 C157.79 113.8 156.88 112.47 155.96 111.15 C153.63 107.75 151.3 104.36 148.98 100.96 C148.5 100.27 148.03 99.57 147.54 98.86 C146.65 97.57 145.77 96.27 144.89 94.98 C144.05 93.76 143.2 92.56 142.32 91.38 C140.83 89.13 140.83 89.13 139.62 86.37 C137.72 82.73 136.11 80.65 132.83 78.13 C125.44 76.05 117.32 76.86 109.74 77.06 C107.46 77.08 105.19 77.1 102.91 77.11 C96.94 77.15 90.97 77.26 85 77.38 C78.9 77.49 72.8 77.54 66.7 77.6 C54.74 77.71 42.79 77.9 30.83 78.13 Z " fill="#000000" transform="translate(52.169456481933594,-0.13422107696533203)"/>
<path d="M0 0 C6.67 -0.31 13.34 -0.51 20.01 -0.66 C22.28 -0.72 24.55 -0.8 26.81 -0.91 C46.65 -1.79 46.65 -1.79 51.28 2.34 C53.62 5.45 55.3 8.51 57 12 C58.24 13.82 59.51 15.62 60.82 17.39 C62.07 19.2 63.32 21.01 64.56 22.81 C65.96 24.83 67.35 26.84 68.75 28.85 C69.45 29.87 70.15 30.89 70.88 31.93 C74.29 36.86 77.71 41.77 81.12 46.69 C81.79 47.64 82.45 48.59 83.13 49.58 C89.17 58.25 95.22 66.9 101.28 75.55 C104.19 79.7 107.09 83.85 110 88 C111.17 89.67 112.33 91.33 113.5 93 C115.83 96.33 118.17 99.67 120.5 103 C121.08 103.82 121.65 104.65 122.25 105.5 C123.42 107.17 124.59 108.84 125.75 110.51 C128.65 114.64 131.54 118.77 134.43 122.89 C141.32 132.73 148.18 142.57 155.03 152.43 C161.1 161.15 167.19 169.85 173.28 178.55 C176.19 182.7 179.09 186.85 182 191 C183.17 192.67 184.33 194.33 185.5 196 C192.5 206 199.5 216 206.5 226 C207.08 226.82 207.65 227.65 208.25 228.5 C209.42 230.17 210.59 231.84 211.75 233.51 C214.65 237.64 217.54 241.77 220.43 245.89 C226.64 254.75 232.83 263.62 239 272.5 C244.22 280.01 249.45 287.51 254.69 295 C255.25 295.81 255.82 296.61 256.4 297.44 C256.93 298.2 257.46 298.97 258.01 299.75 C258.51 300.47 259.02 301.19 259.53 301.93 C260.51 303.31 261.5 304.68 262.5 306.04 C266 310.8 266 310.8 266 313 C259.29 313.23 252.59 313.39 245.88 313.49 C243.6 313.54 241.32 313.6 239.04 313.68 C235.75 313.79 232.47 313.84 229.18 313.88 C228.17 313.93 227.16 313.97 226.11 314.02 C221.88 314.02 219.13 314 215.88 311.12 C214.07 308.82 212.51 306.49 211 304 C210.01 302.63 210.01 302.63 208.99 301.23 C208.46 300.46 207.93 299.69 207.38 298.9 C206.76 298.01 206.14 297.12 205.51 296.2 C204.87 295.27 204.22 294.34 203.56 293.38 C202.15 291.33 200.74 289.29 199.32 287.25 C198.61 286.22 197.89 285.18 197.15 284.11 C193.74 279.17 190.31 274.24 186.88 269.31 C186.21 268.36 185.55 267.41 184.87 266.42 C178.83 257.75 172.78 249.1 166.72 240.45 C163.81 236.3 160.91 232.15 158 228 C156.83 226.33 155.67 224.67 154.5 223 C152.17 219.67 149.83 216.33 147.5 213 C146.92 212.18 146.35 211.35 145.75 210.5 C144.58 208.83 143.41 207.16 142.25 205.49 C139.35 201.36 136.46 197.23 133.57 193.11 C126.68 183.27 119.82 173.43 112.97 163.57 C106.9 154.85 100.81 146.15 94.72 137.45 C91.81 133.3 88.91 129.15 86 125 C84.83 123.33 83.67 121.67 82.5 120 C75.5 110 68.5 100 61.5 90 C60.92 89.18 60.35 88.35 59.75 87.5 C58.58 85.83 57.41 84.16 56.25 82.49 C53.35 78.36 50.46 74.23 47.57 70.11 C40.69 60.28 33.83 50.44 26.98 40.6 C21.4 32.57 15.8 24.55 10.18 16.54 C9.67 15.81 9.16 15.08 8.63 14.32 C7.45 12.63 6.25 10.95 5.04 9.28 C4.08 7.93 4.08 7.93 3.1 6.55 C2.21 5.32 2.21 5.32 1.3 4.06 C0 2 0 2 0 0 Z " fill="#000000" transform="translate(123,100)"/>
</svg>
