<?xml version="1.0" encoding="UTF-8"?>
<!-- Generator: visioncortex VTracer 0.6.3 -->
<svg version="1.1" xmlns="http://www.w3.org/2000/svg" width="512" height="512">
<path d="M0 0 C1.09 0 2.17 0 3.29 0 C123.73 0.02 123.73 0.02 175.62 7.12 C176.69 7.27 177.76 7.42 178.86 7.57 C196.84 10.32 212.42 17.84 223.67 32.4 C239.56 55.09 240.03 87.45 241.62 114.19 C241.67 114.83 241.71 115.48 241.75 116.14 C242.85 133.02 242.83 149.91 242.81 166.81 C242.81 167.56 242.81 168.3 242.81 169.07 C242.8 191.16 242.74 213.17 240.62 235.19 C240.56 235.91 240.49 236.62 240.42 237.36 C234.69 297.68 234.69 297.68 214.62 315.19 C187.34 336.58 145.44 333.83 112.38 335.31 C111.53 335.35 110.69 335.39 109.82 335.43 C74.81 337 39.79 337.39 4.75 337.38 C3.25 337.37 3.25 337.37 1.72 337.37 C-186.81 337.35 -186.81 337.35 -214.35 310.25 C-249.92 271.55 -239.73 181.94 -237.69 132.87 C-233.84 45.13 -233.84 45.13 -210.83 23.25 C-201.53 15.42 -191.02 10.2 -179.06 8.12 C-178.13 7.96 -177.2 7.8 -176.24 7.63 C-153.9 3.98 -131.07 3.1 -108.5 2.06 C-107.26 2 -107.26 2 -105.99 1.95 C-99.45 1.65 -92.91 1.41 -86.38 1.19 C-85.09 1.14 -83.8 1.1 -82.47 1.06 C-54.98 0.15 -27.5 -0.01 0 0 Z M-45.38 98.19 C-45.38 144.72 -45.38 191.25 -45.38 239.19 C-41.53 237.65 -38.18 236.06 -34.58 234.06 C-33.46 233.44 -32.35 232.82 -31.2 232.19 C-30.01 231.52 -28.82 230.85 -27.62 230.19 C-27.02 229.85 -26.41 229.51 -25.78 229.16 C-17.4 224.49 -9.08 219.72 -0.83 214.82 C17.4 204 35.89 193.59 54.3 183.08 C59.49 180.12 64.68 177.15 69.88 174.19 C71.59 173.21 73.3 172.23 75.02 171.25 C75.72 170.85 76.42 170.45 77.14 170.04 C77.88 169.62 77.88 169.62 78.62 169.19 C75.7 166.9 72.68 164.99 69.46 163.14 C68.43 162.55 67.41 161.96 66.35 161.35 C65.25 160.72 64.14 160.09 63 159.44 C61.83 158.77 60.67 158.1 59.5 157.43 C57.08 156.04 54.65 154.65 52.23 153.26 C46.69 150.08 41.16 146.88 35.62 143.69 C33.46 142.44 31.29 141.18 29.12 139.93 C24.81 137.45 20.5 134.96 16.2 132.47 C3.59 125.19 -9.04 117.94 -21.69 110.73 C-22.78 110.11 -23.87 109.48 -24.99 108.84 C-26.05 108.24 -27.1 107.64 -28.19 107.02 C-32.49 104.55 -36.76 102.01 -41.02 99.46 C-43.22 98.03 -43.22 98.03 -45.38 98.19 Z " fill="#000000" transform="translate(253.375,82.8125)"/>
</svg>
